<svg width="108" height="123" viewBox="0 0 108 123" fill="none" xmlns="http://www.w3.org/2000/svg">
<circle cx="42.75" cy="42.75" r="42.75" fill="#05AD5C"/>
<path d="M106.462 113.402H100.536C101.907 111.53 102.472 109.156 102.035 106.799C101.799 105.528 101.285 104.359 100.56 103.353C101.86 103.053 103.105 102.464 104.196 101.591C104.813 101.097 105.175 100.359 105.187 99.5682C105.2 98.7767 104.863 98.0277 104.261 97.5134L90.0252 85.3425C88.9774 84.4461 88.1915 83.2821 87.7533 81.9748L84.4272 72.0429C84.4264 72.0397 84.4248 72.0365 84.424 72.0333L81.4288 63.0924C80.0709 59.0381 76.8249 55.8529 72.7458 54.572L62.431 51.3324C65.2316 49.3577 67.0661 46.0997 67.0661 42.4195V35.2602C67.0661 29.2481 62.1747 24.3574 56.1633 24.3574C50.1519 24.3574 45.2605 29.2481 45.2605 35.2602V42.4203C45.2605 45.9307 46.93 49.0573 49.5151 51.052C49.2475 51.1257 48.9808 51.2034 48.7148 51.2867L38.2542 54.572C34.1751 55.8529 30.9291 59.0381 29.5712 63.0924L23.2459 81.9748C22.8077 83.2821 22.0226 84.4469 20.9748 85.3425L6.73867 97.5142C6.13705 98.0285 5.7998 98.7767 5.81261 99.5682C5.82543 100.36 6.18672 101.097 6.80436 101.591C7.94511 102.504 9.25328 103.107 10.6167 103.392C9.32938 105.761 9.08505 108.649 10.0776 111.268C10.3788 112.06 10.7753 112.774 11.2528 113.403H4.53809C3.68813 113.403 3 114.091 3 114.941C3 115.79 3.68813 116.479 4.53809 116.479H96.5957H96.5973H96.5989H106.462C107.312 116.479 108 115.79 108 114.941C108 114.091 107.311 113.402 106.462 113.402ZM71.4584 77.5215L76.8906 91.0383C76.9211 91.1136 76.9571 91.1865 76.9988 91.2561C77.9601 92.8567 79.3291 94.1825 80.9593 95.0918L82.7602 96.0955L71.4584 92.6444V77.5215ZM88.0257 87.6809L101.85 99.4993C99.9963 100.738 97.6099 100.848 95.6352 99.7501L82.4574 92.4049C81.3302 91.7769 80.3777 90.8676 79.6968 89.7725L74.855 77.7242L82.036 74.5895L84.8366 82.9513C85.4518 84.7874 86.5549 86.4224 88.0257 87.6809ZM48.3367 42.4203V35.2602C48.3367 30.9448 51.8478 27.4336 56.1633 27.4336C60.4788 27.4336 63.9899 30.9448 63.9899 35.2602V42.4203C63.9899 46.7358 60.4788 50.2469 56.1633 50.2469C51.8478 50.2469 48.3367 46.7358 48.3367 42.4203ZM39.1755 57.5064L49.6368 54.2219C53.4725 53.0171 57.5275 53.0171 61.3632 54.2219L71.8245 57.5064C74.9664 58.4933 77.4666 60.9462 78.512 64.0697L81.0555 71.6616L73.7071 74.8683L71.3471 68.9964C71.0723 68.313 70.3521 67.9197 69.628 68.0599C68.9046 68.2001 68.3823 68.8337 68.3823 69.5699V92.2447H42.6177V69.5699C42.6177 68.8337 42.0954 68.2001 41.372 68.0599C40.6503 67.9197 39.9277 68.313 39.6529 68.9964L37.6101 74.0785L30.3515 70.4487L32.488 64.0697C33.5334 60.9462 36.0336 58.4933 39.1755 57.5064ZM22.9735 87.6809C24.4451 86.4224 25.5482 84.7874 26.1626 82.9513L29.3638 73.3943L36.459 76.9423L35.3407 79.7245C35.0242 80.5128 35.4063 81.4084 36.1946 81.7256C36.9821 82.0421 37.8785 81.6599 38.1949 80.8717L39.5416 77.5223V92.6396L28.4617 95.9721L30.0399 95.0918C31.6701 94.1833 33.0399 92.8575 34.0012 91.257C34.0429 91.1873 34.0789 91.1144 34.1094 91.0383L35.2589 88.1768C35.5762 87.3885 35.1941 86.4929 34.4058 86.1765C33.6175 85.8592 32.7219 86.2413 32.4047 87.0296L31.3024 89.7725C30.6215 90.8684 29.6698 91.7769 28.5426 92.4049L15.3664 99.7493C13.3901 100.848 11.0045 100.738 9.14994 99.4993L22.9735 87.6809ZM17.6999 113.402H17.6943C15.4593 113.402 13.7322 112.227 12.9543 110.177C12.0747 107.857 12.6771 105.122 14.4131 103.409L41.3055 95.3209H69.6912L95.2219 103.117C97.2142 103.725 98.6305 105.311 99.0102 107.36C99.3899 109.408 98.6369 111.396 96.9947 112.678L96.0678 113.403H63.587C63.3883 112.325 62.9092 110.891 61.7757 109.615L64.8399 109.446C65.6882 109.399 66.3379 108.673 66.2906 107.825C66.2442 106.977 65.5184 106.329 64.6708 106.374L56.3347 106.835C55.9823 106.772 55.6146 106.719 55.2284 106.679L31.5059 104.202C30.6551 104.113 29.9045 104.727 29.8164 105.572C29.7282 106.417 30.3419 107.173 31.1862 107.261L54.9104 109.739C55.2693 109.776 55.6065 109.826 55.9222 109.887C55.9286 109.889 55.9358 109.889 55.9422 109.891C59.0128 110.493 60.0926 112.165 60.4651 113.402H17.6999Z" fill="#20194B"/>
<path d="M72.7298 109.007C72.7578 109.007 72.7866 109.007 72.8155 109.006L83.1887 108.433C84.0363 108.386 84.686 107.661 84.6395 106.812C84.5931 105.964 83.8665 105.314 83.0189 105.362L72.6464 105.934C71.7981 105.981 71.1484 106.707 71.1949 107.554C71.2405 108.374 71.9183 109.007 72.7298 109.007Z" fill="#20194B"/>
</svg>
