<svg width="129" height="116" viewBox="0 0 129 116" fill="none" xmlns="http://www.w3.org/2000/svg">
<ellipse cx="89.038" cy="39.9496" rx="39.9619" ry="39.9496" fill="#05AD5C"/>
<g clip-path="url(#clip0)">
<path d="M92.401 56.649H90.484V48.0224C90.484 43.7937 87.0431 40.3542 82.8159 40.3542C81.3377 40.3542 79.9553 40.7743 78.7841 41.5022C78.0001 38.1017 74.9463 35.5616 71.3137 35.5616H71.3114C67.085 35.5616 63.6433 39.0011 63.6433 43.2298V56.649H34.5089V43.2298C34.5089 39.0011 31.0672 35.5616 26.8385 35.5616C23.2058 35.5616 20.1521 38.1017 19.368 41.5022C18.1968 40.7743 16.8145 40.3542 15.3363 40.3542C11.1091 40.3542 7.66814 43.7937 7.66814 48.0224V56.649H5.7511C2.58051 56.649 0 59.2295 0 62.4001V70.0683C0 73.2389 2.58051 75.8194 5.7511 75.8194H7.66814V84.446C7.66814 88.6747 11.1091 92.1142 15.3363 92.1142C16.8145 92.1142 18.1968 91.6941 19.368 90.9662C20.1521 94.3667 23.2058 96.9067 26.8385 96.9067H26.8407C31.0672 96.9067 34.5089 93.4673 34.5089 89.2386V75.8194H63.6433V89.2386C63.6433 93.4673 67.085 96.9067 71.3137 96.9067C74.9463 96.9067 78.0001 94.3667 78.7841 90.9662C79.9553 91.6941 81.3377 92.1142 82.8159 92.1142C87.0431 92.1142 90.484 88.6747 90.484 84.446V75.8194H92.401C95.5716 75.8194 98.1522 73.2389 98.1522 70.0683V62.4001C98.1522 59.2295 95.5716 56.649 92.401 56.649ZM7.66814 71.9853H5.7511C4.69449 71.9853 3.83407 71.1249 3.83407 70.0683V62.4001C3.83407 61.3435 4.69449 60.4831 5.7511 60.4831H7.66814V71.9853ZM19.1703 84.446C19.1703 85.5041 18.7413 86.4627 18.0471 87.1568C17.3529 87.851 16.3944 88.2801 15.3363 88.2801C13.2215 88.2801 11.5022 86.5607 11.5022 84.446V48.0224C11.5022 45.9076 13.2215 44.1883 15.3363 44.1883C17.451 44.1883 19.1703 45.9076 19.1703 48.0224V84.446ZM30.6748 89.2386C30.6748 91.3533 28.9532 93.0727 26.8407 93.0727H26.8385C24.726 93.0727 23.0044 91.3533 23.0044 89.2386V43.2298C23.0044 41.1151 24.726 39.3957 26.8407 39.3957C28.9532 39.3957 30.6748 41.1151 30.6748 43.2298V89.2386ZM63.6321 64.3172H50.2263C49.1682 64.3172 48.3093 65.1761 48.3093 66.2342C48.3093 67.2923 49.1682 68.1512 50.2263 68.1512H63.6321V71.9853H34.4991V60.4831H63.6321V64.3172ZM75.1477 89.2386C75.1477 91.3533 73.4262 93.0727 71.3114 93.0727C69.1989 93.0727 67.4774 91.3533 67.4774 89.2386V66.3323C67.4759 66.3742 67.4721 66.4162 67.4661 66.4566V66.0118C67.4721 66.0522 67.4759 66.0942 67.4774 66.1361V43.2298C67.4774 41.1151 69.1989 39.3957 71.3114 39.3957H71.3137C73.4262 39.3957 75.1477 41.1151 75.1477 43.2298V89.2386ZM86.6499 84.446C86.6499 86.5607 84.9306 88.2801 82.8159 88.2801C80.7011 88.2801 78.9818 86.5607 78.9818 84.446V48.0224C78.9818 45.9076 80.7011 44.1883 82.8159 44.1883C84.9306 44.1883 86.6499 45.9076 86.6499 48.0224V84.446ZM94.3181 70.0683C94.3181 71.1249 93.4577 71.9853 92.401 71.9853H90.484V60.4831H92.401C93.4577 60.4831 94.3181 61.3435 94.3181 62.4001V70.0683Z" fill="#20194B"/>
<path d="M42.5619 68.1513C41.503 68.1513 40.6441 67.2931 40.6441 66.2342C40.6441 65.1754 41.5015 64.3172 42.5604 64.3172H42.5619C43.6207 64.3172 44.4789 65.1754 44.4789 66.2342C44.4789 67.2931 43.6207 68.1513 42.5619 68.1513Z" fill="#20194B"/>
</g>
<defs>
<clipPath id="clip0">
<rect width="98.1522" height="98.1522" fill="white" transform="translate(0 17.1581)"/>
</clipPath>
</defs>
</svg>
