<svg width="99" height="117" viewBox="0 0 99 117" fill="none" xmlns="http://www.w3.org/2000/svg">
<ellipse cx="56.65" cy="41.9227" rx="41.9357" ry="41.9227" fill="#05AD5C"/>
<path d="M75.3369 89.0192L94.8562 69.5001C97.8124 66.5437 97.8124 61.7333 94.856 58.7769C93.8135 57.7344 92.5403 57.0613 91.1993 56.7541C91.6591 55.7655 91.9026 54.6806 91.9026 53.5579C91.9026 51.5325 91.1138 49.6284 89.6818 48.1964C88.5587 47.0731 87.1446 46.3477 85.6099 46.0863C86.4739 43.4538 85.8632 40.4388 83.7736 38.3495C82.6247 37.2008 81.1958 36.5007 79.7045 36.2448C79.9544 35.4866 80.0861 34.6859 80.0861 33.8644C80.0861 31.839 79.2973 29.9349 77.8654 28.5029C76.4333 27.071 74.5292 26.2822 72.504 26.2822C71.2179 26.2822 69.9813 26.6012 68.8827 27.2003L68.6885 26.9917C66.1654 24.2803 62.594 22.7255 58.8907 22.7255H43.0906C41.9796 22.7255 41.0785 23.6265 41.0785 24.7376V27.3762C41.0785 28.4321 41.2572 29.4601 41.5987 30.4267C40.6886 30.0487 39.7039 29.8502 38.6888 29.8502C36.6634 29.8502 34.7593 30.639 33.3272 32.0709C31.2366 34.1615 30.6264 37.1787 31.4925 39.812C30 40.0673 28.569 40.7678 27.4191 41.9175C25.9872 43.3496 25.1984 45.2537 25.1984 47.2789C25.1984 48.0989 25.3298 48.8983 25.5786 49.6549C24.0457 49.9171 22.6331 50.6421 21.5109 51.7644C19.2021 54.0733 18.6965 57.5133 19.9943 60.3174C18.6201 60.6315 17.3579 61.3235 16.3364 62.3449C13.3802 65.3011 13.3802 70.1115 16.3364 73.0679L20.3506 77.0819L0.588661 96.8434C-0.197116 97.6292 -0.197116 98.9032 0.588661 99.6892C0.98155 100.082 1.49655 100.279 2.01135 100.279C2.52615 100.279 3.04115 100.082 3.43404 99.6892L23.3867 79.7366C24.5162 80.3811 25.7981 80.7259 27.1341 80.7259C29.1593 80.7259 31.0634 79.9371 32.4955 78.505C34.0514 76.9493 34.7873 74.8799 34.7054 72.8376C34.8074 72.8418 34.9094 72.8448 35.0114 72.8448C36.9527 72.8446 38.895 72.1055 40.3728 70.6277C41.8047 69.1956 42.5935 67.2915 42.5935 65.2663C42.5935 65.1639 42.5901 65.0621 42.5861 64.9603C42.6869 64.9643 42.7877 64.9675 42.8887 64.9675C44.8302 64.9675 46.7721 64.2284 48.2501 62.7504C49.682 61.3183 50.4708 59.4142 50.4708 57.389C50.4708 57.2866 50.4674 57.1848 50.4634 57.083C50.5642 57.087 50.665 57.0902 50.7659 57.0902C52.7077 57.0902 54.6494 56.3511 56.1274 54.8731C58.9052 52.0953 59.0723 47.681 56.6303 44.7055L69.9869 31.3489C70.659 30.6766 71.5522 30.3066 72.5028 30.3066C73.4533 30.3066 74.3467 30.6766 75.0188 31.3489C75.6909 32.021 76.0609 32.9142 76.0609 33.8648C76.0609 34.8151 75.6909 35.7087 75.0186 36.3806L73.0493 38.3499L65.9041 45.4951C65.1183 46.2809 65.1183 47.5549 65.9041 48.3409C66.297 48.7336 66.812 48.9303 67.3268 48.9303C67.8416 48.9303 68.3566 48.7338 68.7495 48.3409L75.8947 41.1957C77.2818 39.8084 79.5391 39.8082 80.9266 41.1955C82.3139 42.5829 82.3139 44.8401 80.9266 46.2276L78.9572 48.197L73.7814 53.3728C72.9956 54.1586 72.9956 55.4326 73.7814 56.2186C74.1743 56.6113 74.6893 56.808 75.2041 56.808C75.7189 56.808 76.2339 56.6115 76.6268 56.2186L81.8025 51.0428C82.4746 50.3705 83.368 50.0005 84.3184 50.0005C85.2689 50.0005 86.1623 50.3705 86.8344 51.0428C87.5066 51.7149 87.8765 52.6081 87.8765 53.5587C87.8765 54.509 87.5065 55.4026 86.8342 56.0745L84.1311 58.7777L81.6585 61.2503C80.8727 62.0361 80.8727 63.3101 81.6585 64.0961C82.0514 64.4887 82.5664 64.6855 83.0812 64.6855C83.596 64.6855 84.111 64.4889 84.5039 64.0961L86.9783 61.6216C88.3658 60.2366 90.6217 60.2368 92.0084 61.6235C93.3959 63.0107 93.3959 65.2681 92.0084 66.6556L72.4891 86.1747C67.5877 91.0762 61.0736 93.9137 54.1466 94.1652C53.6375 94.1837 53.1539 94.3947 52.7942 94.7561L34.7627 112.854C33.9784 113.641 33.9806 114.915 34.768 115.7C35.1604 116.091 35.6742 116.287 36.188 116.287C36.704 116.287 37.2204 116.089 37.6133 115.695L50.876 102.383C54.2448 104.544 58.2067 105.572 62.2351 105.306L72.6152 115.686C73.0081 116.078 73.5231 116.275 74.0379 116.275C74.5529 116.275 75.0677 116.079 75.4606 115.686C76.2464 114.9 76.2464 113.626 75.4606 112.84L64.4243 101.802C64.0065 101.385 63.4259 101.171 62.8371 101.22L62.1991 101.272C59.2546 101.513 56.344 100.868 53.8028 99.4444L55.096 98.1466C62.7437 97.6749 69.9038 94.4525 75.3369 89.0192ZM29.6501 75.6596C28.978 76.3319 28.0844 76.7019 27.1343 76.7019C26.1838 76.7019 25.2903 76.3319 24.6184 75.6596L19.1816 70.2229C17.7943 68.8357 17.7943 66.5783 19.1816 65.1908C19.8537 64.5185 20.7473 64.1486 21.6976 64.1486C22.648 64.1486 23.5416 64.5185 24.2135 65.1908L29.6503 70.6275C31.0374 72.0148 31.0374 74.2721 29.6501 75.6596ZM37.5278 67.7819C36.1403 69.1692 33.8826 69.1692 32.4957 67.7819L27.0588 62.3451L24.3555 59.6417C22.9682 58.2544 22.9682 55.9971 24.3555 54.6098C25.0276 53.9375 25.9212 53.5675 26.8714 53.5675C27.8219 53.5675 28.7153 53.9375 29.3872 54.6098L37.5272 62.7498C37.5272 62.7498 37.5272 62.7498 37.5274 62.7498C38.1997 63.4221 38.5697 64.3155 38.5697 65.2659C38.5697 66.2162 38.1997 67.1098 37.5278 67.7819ZM45.4051 59.9044C44.0176 61.2915 41.7601 61.2917 40.373 59.9044L30.2635 49.7949C29.5914 49.1228 29.2214 48.2296 29.2214 47.2791C29.2214 46.3288 29.5914 45.4352 30.2637 44.7632C30.9574 44.0696 31.8687 43.7228 32.7796 43.7228C33.6901 43.7228 34.6004 44.0692 35.2938 44.7616L39.9015 49.3693L45.4047 54.8725H45.4049C46.0768 55.5446 46.4468 56.4378 46.4468 57.3884C46.4472 58.3389 46.0772 59.2325 45.4051 59.9044ZM53.2826 52.0269C51.8953 53.4142 49.638 53.4142 48.2507 52.0269L38.1412 41.9175C38.1402 41.9165 38.139 41.9154 38.1378 41.9142L36.1717 39.9482C34.7845 38.5607 34.7845 36.3036 36.1717 34.9161C36.8654 34.2222 37.7767 33.8754 38.6878 33.8754C39.5989 33.8754 40.5102 34.2222 41.2036 34.9161L53.2822 46.9946C53.9545 47.6668 54.3245 48.5602 54.3245 49.5105C54.3247 50.4612 53.9549 51.355 53.2826 52.0269ZM53.8117 41.8332L48.2851 36.3066C48.9117 36.4404 49.5561 36.5114 50.2119 36.5112C50.2266 36.5112 50.2415 36.5112 50.2564 36.5112L55.7781 36.4852C56.8892 36.48 57.786 35.5749 57.7808 34.4636C57.7756 33.3556 56.8757 32.461 55.7689 32.461C55.7657 32.461 55.7624 32.461 55.7592 32.461L50.2375 32.4869C50.229 32.4869 50.221 32.4869 50.2125 32.4869C48.852 32.4869 47.5723 31.9588 46.6075 30.9987C45.6367 30.0322 45.1021 28.7459 45.1021 27.376V26.7495H58.8901C61.4801 26.7495 63.9777 27.8368 65.7424 29.7331L65.8243 29.821L53.8117 41.8332Z" fill="#20194B"/>
</svg>
