<svg width="125" height="121" viewBox="0 0 125 121" fill="none" xmlns="http://www.w3.org/2000/svg">
<ellipse cx="82.9357" cy="41.9227" rx="41.9357" ry="41.9227" fill="#05AD5C"/>
<path d="M7.81995 48.0168H23.7322C24.5655 48.0168 25.241 47.3415 25.241 46.5081C25.241 45.6746 24.5655 44.9993 23.7322 44.9993H7.81995C6.98669 44.9993 6.31116 45.6746 6.31116 46.5081C6.31116 47.3415 6.98649 48.0168 7.81995 48.0168Z" fill="black"/>
<path d="M23.1866 55.2806H16.9008C16.0676 55.2806 15.392 55.9559 15.392 56.7894C15.392 57.6228 16.0676 58.2982 16.9008 58.2982H23.1866C24.0199 58.2982 24.6954 57.6228 24.6954 56.7894C24.6954 55.9559 24.0199 55.2806 23.1866 55.2806Z" fill="black"/>
<path d="M1.50879 65.7435H16.9009C17.7341 65.7435 18.4096 65.0682 18.4096 64.2347C18.4096 63.4013 17.7341 62.726 16.9009 62.726H1.50879C0.675535 62.726 0 63.4013 0 64.2347C0 65.0682 0.675535 65.7435 1.50879 65.7435Z" fill="black"/>
<path d="M25.241 92.4918C25.241 91.6583 24.5655 90.983 23.7322 90.983H7.81995C6.98669 90.983 6.31116 91.6583 6.31116 92.4918C6.31116 93.3252 6.98669 94.0005 7.81995 94.0005H23.7322C24.5655 94.0005 25.241 93.3252 25.241 92.4918Z" fill="black"/>
<path d="M23.1866 80.7019H16.9008C16.0676 80.7019 15.392 81.3772 15.392 82.2107C15.392 83.0441 16.0676 83.7195 16.9008 83.7195H23.1866C24.0199 83.7195 24.6954 83.0441 24.6954 82.2107C24.6954 81.3772 24.0199 80.7019 23.1866 80.7019Z" fill="black"/>
<path d="M18.4096 74.7653C18.4096 73.9319 17.7341 73.2565 16.9009 73.2565H1.50879C0.675535 73.2565 0 73.9319 0 74.7653C0 75.5988 0.675535 76.2741 1.50879 76.2741H16.9009C17.7341 76.2741 18.4096 75.5988 18.4096 74.7653Z" fill="black"/>
<path d="M64.2803 51.3603C65.1137 51.3603 65.7891 50.685 65.7891 49.8515V47.5485C65.7891 46.7151 65.1137 46.0397 64.2803 46.0397C63.4468 46.0397 62.7715 46.7151 62.7715 47.5485V49.8515C62.7715 50.685 63.4468 51.3603 64.2803 51.3603Z" fill="black"/>
<path d="M80.869 52.911C80.2796 52.322 79.3244 52.322 78.7352 52.911L77.1067 54.5395C76.5175 55.1289 76.5175 56.0841 77.1067 56.6733C77.6964 57.2626 78.6513 57.2624 79.2405 56.6733L80.869 55.0448C81.458 54.4556 81.458 53.5004 80.869 52.911Z" fill="black"/>
<path d="M83.9287 67.9912C83.0953 67.9912 82.4199 68.6665 82.4199 69.5C82.4199 70.3335 83.0953 71.0088 83.9287 71.0088H86.2315C87.065 71.0088 87.7403 70.3335 87.7403 69.5C87.7403 68.6665 87.065 67.9912 86.2315 67.9912H83.9287Z" fill="black"/>
<path d="M79.2406 82.3265C78.6511 81.7375 77.696 81.7375 77.1067 82.3265C76.5175 82.916 76.5175 83.8711 77.1067 84.4604L78.7352 86.0889C79.3248 86.6781 80.2798 86.6779 80.869 86.0889C81.4583 85.4994 81.4583 84.5443 80.869 83.955L79.2406 82.3265Z" fill="black"/>
<path d="M62.7715 89.1484V91.4513C62.7715 92.2847 63.4468 92.96 64.2803 92.96C65.1137 92.96 65.7891 92.2847 65.7891 91.4513V89.1484C65.7891 88.315 65.1137 87.6396 64.2803 87.6396C63.4468 87.6396 62.7715 88.3152 62.7715 89.1484Z" fill="black"/>
<path d="M49.3197 82.3265L47.6913 83.955C47.102 84.5445 47.102 85.4996 47.6913 86.0889C48.2807 86.6781 49.2358 86.6779 49.8249 86.0889L51.4534 84.4604C52.0426 83.8709 52.0426 82.9158 51.4534 82.3265C50.8643 81.7375 49.909 81.7375 49.3197 82.3265Z" fill="black"/>
<path d="M42.3287 67.9912C41.4955 67.9912 40.8199 68.6665 40.8199 69.5C40.8199 70.3335 41.4955 71.0088 42.3287 71.0088H44.6318C45.465 71.0088 46.1405 70.3335 46.1405 69.5C46.1405 68.6665 45.465 67.9912 44.6318 67.9912H42.3287Z" fill="black"/>
<path d="M51.4535 54.5395L49.8251 52.911C49.2358 52.322 48.2805 52.322 47.6914 52.911C47.1022 53.5004 47.1022 54.4556 47.6914 55.0448L49.3199 56.6733C49.9094 57.2626 50.8645 57.2624 51.4535 56.6733C52.0428 56.0841 52.0428 55.1289 51.4535 54.5395Z" fill="black"/>
<path d="M72.3935 69.5C72.3935 68.6666 71.7182 67.9912 70.8847 67.9912H65.7891V56.7892C65.7891 55.9557 65.1137 55.2804 64.2803 55.2804C63.4468 55.2804 62.7715 55.9557 62.7715 56.7892V69.5C62.7715 70.3335 63.4468 71.0088 64.2803 71.0088H70.8847C71.718 71.0088 72.3935 70.3335 72.3935 69.5Z" fill="black"/>
<path d="M92.8893 69.2509C93.7211 69.2004 94.3544 68.4853 94.3039 67.6536C93.3442 51.8208 80.1561 39.4183 64.2801 39.4183C47.693 39.4183 34.1984 52.9129 34.1984 69.5002C34.1984 86.0872 47.693 99.5818 64.2801 99.5818C79.1404 99.5818 91.8205 88.694 94.0263 74.0014C94.1501 73.1774 93.5823 72.4091 92.7581 72.2854C91.9361 72.1621 91.1659 72.7292 91.0421 73.5536C89.0606 86.7533 77.663 96.5644 64.2801 96.5644C49.3569 96.5644 37.216 84.4235 37.216 69.5004C37.216 54.5772 49.3569 42.4361 64.2801 42.4361C78.5635 42.4361 90.4284 53.5933 91.2918 67.8367C91.3421 68.6679 92.0567 69.2992 92.8893 69.2509Z" fill="black"/>
<path d="M64.28 30.7803C58.9729 30.7803 53.7732 31.8813 48.9873 33.9403H22.3665C21.5332 33.9403 20.8577 34.6156 20.8577 35.4491C20.8577 36.2825 21.5332 36.9579 22.3665 36.9579H43.3111C40.4792 38.7805 37.8722 40.9789 35.5736 43.5169C35.0143 44.1343 35.0614 45.0884 35.679 45.6479C36.2968 46.2073 37.2506 46.1601 37.8102 45.5425C44.57 38.0786 54.218 33.7979 64.28 33.7979C83.9663 33.7979 99.9824 49.8137 99.9824 69.5C99.9824 89.1861 83.9665 105.202 64.28 105.202C44.5938 105.202 28.5778 89.1863 28.5778 69.5C28.5778 62.6063 30.5471 55.9153 34.2724 50.1501C34.7247 49.4502 34.5239 48.5164 33.824 48.0642C33.1241 47.6121 32.1903 47.8125 31.7379 48.5126C27.6963 54.7666 25.5603 62.0239 25.5603 69.5C25.5603 83.1326 32.6427 95.141 43.3207 102.042H22.3667C21.5334 102.042 20.8579 102.718 20.8579 103.551C20.8579 104.384 21.5334 105.06 22.3667 105.06H48.9666C53.666 107.091 58.8436 108.22 64.2802 108.22C85.6302 108.22 103 90.8502 103 69.5C103 48.1499 85.6302 30.7803 64.28 30.7803Z" fill="black"/>
</svg>
