<svg width="15" height="15" viewBox="0 0 15 15" fill="none" xmlns="http://www.w3.org/2000/svg">
<path d="M7.5 0C11.6354 0 15 3.36457 15 7.5C15 11.6354 11.6354 15 7.5 15C3.36457 15 9.53674e-07 11.6354 9.53674e-07 7.5C9.53674e-07 3.36457 3.36457 0 7.5 0ZM7.5 14.0625C11.1186 14.0625 14.0625 11.1186 14.0625 7.5C14.0625 3.88137 11.1186 0.937504 7.5 0.937504C3.88138 0.937504 0.937505 3.88137 0.937505 7.5C0.937505 11.1186 3.88138 14.0625 7.5 14.0625Z" fill="#4097A7"/>
<path d="M7.03125 2.8125H7.96875V7.69408L5.01893 10.6439L4.35608 9.98106L7.03125 7.3059V2.8125Z" fill="#4097A7"/>
</svg>
