<svg width="390" height="115" viewBox="0 0 390 115" fill="none" xmlns="http://www.w3.org/2000/svg">
<circle cx="112.5" cy="2.5" r="2.5" fill="#05AD5C"/>
<circle cx="332.5" cy="2.5" r="2.5" fill="#05AD5C"/>
<circle cx="2.5" cy="2.5" r="2.5" fill="#05AD5C"/>
<circle cx="222.5" cy="2.5" r="2.5" fill="#05AD5C"/>
<circle cx="57.5" cy="2.5" r="2.5" fill="#05AD5C"/>
<circle cx="277.5" cy="2.5" r="2.5" fill="#05AD5C"/>
<circle cx="167.5" cy="2.5" r="2.5" fill="#05AD5C"/>
<circle cx="387.5" cy="2.5" r="2.5" fill="#05AD5C"/>
<circle cx="2.5" cy="57.5" r="2.5" fill="#05AD5C"/>
<circle cx="222.5" cy="57.5" r="2.5" fill="#05AD5C"/>
<circle cx="2.5" cy="112.5" r="2.5" fill="#05AD5C"/>
<circle cx="222.5" cy="112.5" r="2.5" fill="#05AD5C"/>
<circle cx="57.5" cy="112.5" r="2.5" fill="#05AD5C"/>
<circle cx="277.5" cy="112.5" r="2.5" fill="#05AD5C"/>
<circle cx="57.5" cy="57.5" r="2.5" fill="#05AD5C"/>
<circle cx="277.5" cy="57.5" r="2.5" fill="#05AD5C"/>
<circle cx="112.5" cy="57.5" r="2.5" fill="#05AD5C"/>
<circle cx="332.5" cy="57.5" r="2.5" fill="#05AD5C"/>
<circle cx="112.5" cy="112.5" r="2.5" fill="#05AD5C"/>
<circle cx="332.5" cy="112.5" r="2.5" fill="#05AD5C"/>
<circle cx="167.5" cy="112.5" r="2.5" fill="#05AD5C"/>
<circle cx="387.5" cy="112.5" r="2.5" fill="#05AD5C"/>
<circle cx="167.5" cy="57.5" r="2.5" fill="#05AD5C"/>
<circle cx="387.5" cy="57.5" r="2.5" fill="#05AD5C"/>
</svg>
