<svg width="64" height="64" viewBox="0 0 64 64" fill="none" xmlns="http://www.w3.org/2000/svg">
<circle cx="32" cy="32" r="32" fill="white"/>
<path d="M33.7234 32L43.8556 21.8678C44.0559 21.634 44.1605 21.3332 44.1486 21.0256C44.1367 20.718 44.0092 20.4262 43.7915 20.2085C43.5739 19.9909 43.2821 19.8633 42.9745 19.8515C42.6669 19.8396 42.3661 19.9442 42.1323 20.1444L32.0001 30.2767L21.8679 20.1322C21.6377 19.9021 21.3256 19.7728 21.0001 19.7728C20.6746 19.7728 20.3624 19.9021 20.1323 20.1322C19.9021 20.3624 19.7729 20.6745 19.7729 21C19.7729 21.3255 19.9021 21.6376 20.1323 21.8678L30.2767 32L20.1323 42.1322C20.0044 42.2418 19.9004 42.3766 19.8271 42.5283C19.7537 42.6799 19.7125 42.8451 19.706 43.0134C19.6995 43.1817 19.7278 43.3496 19.7893 43.5064C19.8507 43.6632 19.9439 43.8057 20.0631 43.9248C20.1822 44.0439 20.3246 44.1371 20.4815 44.1986C20.6383 44.26 20.8062 44.2884 20.9745 44.2819C21.1428 44.2754 21.308 44.2341 21.4596 44.1608C21.6112 44.0874 21.7461 43.9835 21.8556 43.8556L32.0001 33.7233L42.1323 43.8556C42.3661 44.0558 42.6669 44.1604 42.9745 44.1485C43.2821 44.1367 43.5739 44.0091 43.7915 43.7915C44.0092 43.5738 44.1367 43.282 44.1486 42.9744C44.1605 42.6668 44.0559 42.366 43.8556 42.1322L33.7234 32Z" fill="#05AD5C"/>
</svg>
