<svg width="36" height="36" viewBox="0 0 36 36" fill="none" xmlns="http://www.w3.org/2000/svg">
<path d="M19.8356 24.5298C19.6406 24.5298 19.4824 24.6879 19.4824 24.8829V26.1543C19.4824 26.3493 19.6406 26.5074 19.8356 26.5074C20.0306 26.5074 20.1887 26.3494 20.1887 26.1543V24.8829C20.1887 24.6879 20.0306 24.5298 19.8356 24.5298Z" fill="#05AD5C"/>
<path d="M10.8561 19.3014H14.5635V30.9957C14.5635 31.1907 14.7216 31.3489 14.9166 31.3489H19.835C20.03 31.3489 20.1882 31.1907 20.1882 30.9957V28.6965C20.1882 28.5015 20.03 28.3434 19.835 28.3434C19.64 28.3434 19.4819 28.5015 19.4819 28.6965V30.6425H15.2698V18.9482C15.2698 18.7532 15.1116 18.5951 14.9166 18.5951H11.2092V14.383H14.9167C15.1117 14.383 15.2698 14.2249 15.2698 14.0299V9.89937C15.2698 7.09515 17.5514 4.81372 20.3558 4.81372H24.2476V8.52985H21.5633C20.4156 8.52985 19.4819 9.46359 19.4819 10.6113V14.03C19.4819 14.225 19.64 14.3831 19.835 14.3831H24.1216L23.5664 18.5951H19.8349C19.6399 18.5951 19.4818 18.7533 19.4818 18.9483V22.4105C19.4818 22.6055 19.6399 22.7637 19.8349 22.7637C20.0299 22.7637 20.1881 22.6055 20.1881 22.4105V19.3014H23.876C24.0533 19.3014 24.203 19.1701 24.2262 18.9944L24.8744 14.0761C24.8877 13.9752 24.8569 13.8736 24.7898 13.7971C24.7228 13.7206 24.626 13.6767 24.5243 13.6767H20.1881V10.6113C20.1881 9.85297 20.805 9.23608 21.5632 9.23608H24.6006C24.7956 9.23608 24.9538 9.07794 24.9538 8.88293V4.46057C24.9538 4.26556 24.7956 4.10742 24.6006 4.10742H20.3558C17.1619 4.10742 14.5635 6.70569 14.5635 9.89937V13.6767H10.8561C10.6611 13.6767 10.5029 13.8349 10.5029 14.0299V18.9482C10.5029 19.1432 10.6611 19.3014 10.8561 19.3014Z" fill="#E9E9E9"/>
</svg>
