<svg width="36" height="36" viewBox="0 0 36 36" fill="none" xmlns="http://www.w3.org/2000/svg">
<path d="M11.9943 29.4746H23.4623C26.7777 29.4746 29.475 26.7773 29.475 23.4617V11.9938C29.475 8.67832 26.7776 5.98096 23.4622 5.98096H11.9943C8.67881 5.98096 5.98145 8.67832 5.98145 11.9938V23.4617C5.98145 26.7772 8.67881 29.4746 11.9943 29.4746ZM6.68775 11.9939C6.68775 9.06784 9.06826 6.68733 11.9943 6.68733V6.68726H23.4622C26.3882 6.68726 28.7687 9.06777 28.7687 11.9938V23.4618C28.7687 26.3878 26.3882 28.7683 23.4622 28.7683H11.9943C9.06826 28.7683 6.68775 26.3878 6.68775 23.4618V11.9939Z" fill="#E9E9E9"/>
<path d="M24.7899 12.2189C25.6454 12.2189 26.3415 11.5229 26.3415 10.6673C26.3415 9.81171 25.6455 9.11572 24.7899 9.11572C23.9343 9.11572 23.2383 9.81171 23.2383 10.6673C23.2383 11.5229 23.9343 12.2189 24.7899 12.2189ZM24.7899 9.82202C25.2559 9.82202 25.6352 10.2012 25.6352 10.6673C25.6352 11.1334 25.256 11.5126 24.7899 11.5126C24.3238 11.5126 23.9446 11.1334 23.9446 10.6673C23.9446 10.2012 24.3238 9.82202 24.7899 9.82202Z" fill="#E9E9E9"/>
<path d="M12.3834 26.9099C12.5785 26.9099 12.7366 26.7518 12.7366 26.5568C12.7366 26.3618 12.5785 26.2036 12.3834 26.2036C10.6569 26.2036 9.2522 24.799 9.2522 23.0723V16.6686C9.2522 16.4736 9.09406 16.3154 8.89905 16.3154C8.70404 16.3154 8.5459 16.4736 8.5459 16.6686V23.0724C8.5459 25.1884 10.2674 26.9099 12.3834 26.9099Z" fill="#E9E9E9"/>
<path d="M8.89905 14.1266C9.09406 14.1266 9.2522 13.9685 9.2522 13.7735V12.3844C9.2522 12.1894 9.09406 12.0312 8.89905 12.0312C8.70404 12.0312 8.5459 12.1894 8.5459 12.3844V13.7735C8.5459 13.9685 8.70404 14.1266 8.89905 14.1266Z" fill="#05AD5C"/>
<path d="M23.1608 15.3289C23.2192 15.4606 23.3484 15.5389 23.4838 15.5389C23.5316 15.5389 23.5802 15.5292 23.6268 15.5085C23.8051 15.4294 23.8855 15.2207 23.8064 15.0425C23.5563 14.4784 23.2282 13.9514 22.8314 13.476C22.7064 13.3263 22.4837 13.3062 22.3339 13.4312C22.1842 13.5561 22.1641 13.7788 22.2891 13.9285C22.6439 14.3536 22.9372 14.8248 23.1608 15.3289Z" fill="#05AD5C"/>
<path d="M17.7287 14.0752C15.7147 14.0752 14.0762 15.7137 14.0762 17.7277C14.0762 19.7416 15.7146 21.3802 17.7287 21.3802C19.7427 21.3802 21.3812 19.7416 21.3812 17.7277C21.3812 15.7137 19.7426 14.0752 17.7287 14.0752ZM17.7287 20.6739C16.1041 20.6739 14.7825 19.3523 14.7825 17.7277C14.7825 16.1031 16.1041 14.7815 17.7287 14.7815C19.3532 14.7815 20.6749 16.1031 20.6749 17.7277C20.6749 19.3523 19.3532 20.6739 17.7287 20.6739Z" fill="#E9E9E9"/>
<path d="M17.7278 24.374C21.3922 24.374 24.3735 21.3927 24.3735 17.7282C24.3735 17.5332 24.2155 17.3751 24.0204 17.3751C23.8253 17.3751 23.6672 17.5332 23.6672 17.7282C23.6672 21.0032 21.0028 23.6677 17.7278 23.6677C14.4528 23.6677 11.7884 21.0032 11.7884 17.7282C11.7884 14.4533 14.4528 11.7888 17.7278 11.7888C18.6131 11.7888 19.4652 11.9798 20.2606 12.3564C20.4368 12.4398 20.6474 12.3647 20.7309 12.1884C20.8144 12.0121 20.7391 11.8015 20.5628 11.718C19.6722 11.2963 18.7183 11.0825 17.7278 11.0825C14.0633 11.0825 11.082 14.0637 11.082 17.7282C11.082 21.3927 14.0633 24.374 17.7278 24.374Z" fill="#E9E9E9"/>
</svg>
