<svg width="154" height="53" viewBox="0 0 154 53" fill="none" xmlns="http://www.w3.org/2000/svg">
<path d="M112.641 50.099C114.61 50.099 116.007 48.812 116.007 47.008C116.007 45.215 114.61 43.939 112.641 43.939C110.694 43.939 109.275 45.215 109.275 47.008C109.275 48.812 110.694 50.099 112.641 50.099ZM112.641 48.438C111.937 48.438 111.387 47.921 111.387 47.008C111.387 46.106 111.937 45.6 112.641 45.6C113.356 45.6 113.895 46.106 113.895 47.008C113.895 47.921 113.356 48.438 112.641 48.438ZM116.987 50H119.066V47.91H121.211V50H123.301V44.038H121.211V46.249H119.066V44.038H116.987V50ZM125.393 44.038L125.305 46.524C125.261 47.547 125.184 48.317 124.458 48.317C124.381 48.317 124.293 48.306 124.194 48.295L124.106 50C124.491 50.088 124.832 50.143 125.118 50.143C126.669 50.143 127.054 48.757 127.142 46.612L127.186 45.699H128.693V50H130.783V44.038H125.393ZM134.618 43.939C133.683 43.939 132.671 44.181 131.989 44.632L132.693 46.051C133.1 45.732 133.738 45.534 134.31 45.534C135.135 45.534 135.542 45.875 135.575 46.48H134.387C132.539 46.48 131.736 47.162 131.736 48.262C131.736 49.296 132.528 50.099 133.958 50.099C134.827 50.099 135.421 49.802 135.718 49.23V50H137.665V46.689C137.665 44.797 136.554 43.939 134.618 43.939ZM134.541 48.779C134.046 48.779 133.76 48.526 133.76 48.174C133.76 47.811 134.002 47.569 134.673 47.569H135.575V48.086C135.41 48.559 135.003 48.779 134.541 48.779ZM142.036 43.466C143.455 43.466 144.126 42.883 144.126 41.651H142.751C142.751 42.135 142.52 42.421 142.025 42.421C141.519 42.421 141.332 42.135 141.321 41.651H139.968C139.979 42.883 140.628 43.466 142.036 43.466ZM138.923 50H140.859L143.334 46.865V50H145.424V44.038H143.499L141.002 47.162V44.038H138.923V50ZM146.829 50H148.908V47.91H151.053V50H153.143V44.038H151.053V46.249H148.908V44.038H146.829V50Z" fill="#E9E9E9"/>
<path d="M0.703125 36.5703C0.572917 36.2057 0.533854 35.8411 0.585938 35.4766C0.664062 35.0859 0.78125 34.6953 0.9375 34.3047C1.09375 33.9141 1.26302 33.5365 1.44531 33.1719C1.65365 32.8073 1.82292 32.4557 1.95312 32.1172C2.08333 31.8568 2.29167 31.401 2.57812 30.75C2.89062 30.0729 3.20312 29.3698 3.51562 28.6406C3.85417 27.8854 4.16667 27.1693 4.45312 26.4922C4.73958 25.8151 4.94792 25.3464 5.07812 25.0859C5.23438 24.7734 5.20833 24.5 5 24.2656C4.81771 24.0052 4.60938 23.7578 4.375 23.5234C4.16667 23.2891 3.9974 23.0547 3.86719 22.8203C3.76302 22.5859 3.86719 22.3125 4.17969 22C4.36198 21.8177 4.59635 21.7005 4.88281 21.6484C5.16927 21.5964 5.46875 21.5573 5.78125 21.5312C6.09375 21.4792 6.38021 21.401 6.64062 21.2969C6.90104 21.1927 7.10938 20.9844 7.26562 20.6719L11.7188 12.2344C11.5365 11.5312 11.4714 10.9453 11.5234 10.4766C11.6016 10.0078 11.7578 9.60417 11.9922 9.26562C12.2526 8.92708 12.5781 8.61458 12.9688 8.32812C13.3854 8.04167 13.8542 7.71615 14.375 7.35156C17.0573 6.9349 19.6875 6.58333 22.2656 6.29688C24.8698 6.01042 27.5391 5.93229 30.2734 6.0625C30.4297 6.08854 30.625 6.20573 30.8594 6.41406C31.0938 6.59635 31.2891 6.81771 31.4453 7.07812C31.6016 7.3125 31.6667 7.54688 31.6406 7.78125C31.6406 8.01562 31.4714 8.17188 31.1328 8.25C31.1068 8.25 31.0286 8.23698 30.8984 8.21094C30.7682 8.15885 30.625 8.10677 30.4688 8.05469C30.3125 8.0026 30.1693 7.95052 30.0391 7.89844C29.9089 7.84635 29.8307 7.82031 29.8047 7.82031C27.7214 7.82031 25.9115 7.84635 24.375 7.89844C22.8385 7.95052 21.4974 8.06771 20.3516 8.25C19.2318 8.40625 18.2552 8.65365 17.4219 8.99219C16.6146 9.33073 15.8854 9.79948 15.2344 10.3984C14.6094 10.9714 14.0104 11.7005 13.4375 12.5859C12.8906 13.4714 12.3177 14.5521 11.7188 15.8281C11.4323 16.375 11.1719 16.8958 10.9375 17.3906C10.7292 17.8333 10.5599 18.276 10.4297 18.7188C10.2995 19.1354 10.2865 19.487 10.3906 19.7734C11.849 20.0339 13.3203 20.0078 14.8047 19.6953C16.3151 19.3828 17.8255 19.0052 19.3359 18.5625C20.8464 18.1198 22.3568 17.7292 23.8672 17.3906C25.4036 17.026 26.9401 16.9349 28.4766 17.1172V18.0156C28.4766 18.0677 27.9948 18.1849 27.0312 18.3672C26.0677 18.5234 24.8307 18.7578 23.3203 19.0703C21.8359 19.3568 20.1953 19.7214 18.3984 20.1641C16.6276 20.5807 14.9219 21.0755 13.2812 21.6484C11.6406 22.2214 10.1953 22.8724 8.94531 23.6016C7.69531 24.3307 6.84896 25.125 6.40625 25.9844C5.57292 27.6771 4.77865 29.4219 4.02344 31.2188C3.26823 32.9896 2.57812 34.7734 1.95312 36.5703C1.79688 36.8047 1.57552 36.9479 1.28906 37C1.02865 37.0521 0.833333 36.9089 0.703125 36.5703ZM29.4922 36.5703C30.5599 33.1328 31.5234 30.4115 32.3828 28.4062C33.2682 26.375 33.9974 24.9557 34.5703 24.1484C35.1693 23.3411 35.5729 23.0807 35.7812 23.3672C35.9896 23.6536 35.9635 24.3828 35.7031 25.5547C35.4688 26.7266 34.9479 28.3021 34.1406 30.2812C33.3594 32.2344 32.2526 34.474 30.8203 37C30.612 37.0781 30.3646 37.0911 30.0781 37.0391C29.7917 36.987 29.5964 36.8307 29.4922 36.5703ZM36.3281 17.7812C36.276 17.651 36.25 17.4167 36.25 17.0781C36.25 16.7396 36.276 16.5312 36.3281 16.4531C36.9271 16.2448 37.3828 16.2188 37.6953 16.375C38.0078 16.5312 38.2031 16.7656 38.2812 17.0781C38.3594 17.3646 38.3464 17.6771 38.2422 18.0156C38.1641 18.3542 38.0208 18.6146 37.8125 18.7969C37.6042 18.9531 37.3568 18.9792 37.0703 18.875C36.8099 18.7448 36.5625 18.3802 36.3281 17.7812ZM42.5391 36.5703C42.513 36.5182 42.5 36.375 42.5 36.1406C42.5 35.9062 42.513 35.75 42.5391 35.6719C42.6172 35.3854 42.7604 34.8906 42.9688 34.1875C43.1771 33.4583 43.3984 32.7031 43.6328 31.9219C43.8672 31.1146 44.0885 30.3594 44.2969 29.6562C44.5052 28.9531 44.6484 28.4583 44.7266 28.1719C44.8307 27.8073 44.9479 27.3906 45.0781 26.9219C45.2083 26.4271 45.2344 25.9583 45.1562 25.5156C44.7656 25.4635 44.2839 25.5156 43.7109 25.6719C43.138 25.8021 42.5651 25.9193 41.9922 26.0234C41.4453 26.1016 40.9245 26.1016 40.4297 26.0234C39.9609 25.9193 39.6224 25.6068 39.4141 25.0859C39.7266 24.4349 40.1953 24.0182 40.8203 23.8359C41.4453 23.6276 42.1224 23.4844 42.8516 23.4062C43.5807 23.3281 44.2708 23.2109 44.9219 23.0547C45.599 22.8984 46.1328 22.5469 46.5234 22C46.7578 21.3229 47.0312 20.5026 47.3438 19.5391C47.6823 18.5495 48.0339 17.5208 48.3984 16.4531C48.763 15.3854 49.1536 14.3307 49.5703 13.2891C50.013 12.2474 50.4688 11.3229 50.9375 10.5156C51.224 10.3333 51.4583 10.3203 51.6406 10.4766C51.8229 10.6328 51.9531 10.8672 52.0312 11.1797C52.1354 11.4661 52.2005 11.7656 52.2266 12.0781C52.2526 12.3906 52.2526 12.599 52.2266 12.7031C52.0703 13.3802 51.7969 14.1094 51.4062 14.8906C51.0417 15.6458 50.6901 16.4141 50.3516 17.1953C50.0391 17.9766 49.7786 18.7578 49.5703 19.5391C49.388 20.3203 49.388 21.0625 49.5703 21.7656H57.9688C57.9948 21.7656 58.0599 21.8568 58.1641 22.0391C58.2682 22.1953 58.3594 22.3255 58.4375 22.4297C58.5677 22.7943 58.4245 23.0417 58.0078 23.1719C57.5911 23.3021 57.0312 23.3932 56.3281 23.4453C55.625 23.4714 54.8177 23.4974 53.9062 23.5234C53.0208 23.5234 52.1615 23.5885 51.3281 23.7188C50.5208 23.8229 49.7917 24.0182 49.1406 24.3047C48.4896 24.5651 48.0469 24.9688 47.8125 25.5156C47.1354 27.2604 46.5104 29.0182 45.9375 30.7891C45.3646 32.5339 44.8177 34.3047 44.2969 36.1016C44.2448 36.1797 44.1406 36.3099 43.9844 36.4922C43.8281 36.6484 43.6589 36.7917 43.4766 36.9219C43.2943 37.026 43.112 37.0651 42.9297 37.0391C42.7734 37.013 42.6432 36.8568 42.5391 36.5703ZM71.0156 36.5703C70.9375 35.7109 71.0026 34.8646 71.2109 34.0312C71.4453 33.1719 71.7448 32.3385 72.1094 31.5312C72.5 30.6979 72.9036 29.8776 73.3203 29.0703C73.763 28.237 74.1406 27.4297 74.4531 26.6484C74.7656 25.8411 74.987 25.0599 75.1172 24.3047C75.2474 23.5234 75.1953 22.7552 74.9609 22C74.3099 21.7656 73.5547 21.8177 72.6953 22.1562C71.862 22.4948 70.9766 23.0156 70.0391 23.7188C69.1016 24.3958 68.125 25.2031 67.1094 26.1406C66.1198 27.0521 65.1432 27.9896 64.1797 28.9531C63.2422 29.8906 62.3438 30.7891 61.4844 31.6484C60.625 32.5078 59.8438 33.224 59.1406 33.7969C58.4635 34.3438 57.8906 34.6953 57.4219 34.8516C56.9531 34.9818 56.6406 34.8125 56.4844 34.3438C56.4583 34.3177 56.6016 33.9922 56.9141 33.3672C57.2526 32.7161 57.6562 31.9089 58.125 30.9453C58.6198 29.9818 59.1536 28.9401 59.7266 27.8203C60.3255 26.7005 60.8854 25.6589 61.4062 24.6953C61.9271 23.7057 62.3828 22.8724 62.7734 22.1953C63.1641 21.5182 63.4115 21.1536 63.5156 21.1016C64.0625 21.4661 64.3359 21.8698 64.3359 22.3125C64.362 22.7292 64.2969 23.1719 64.1406 23.6406C63.9844 24.0833 63.8021 24.5391 63.5938 25.0078C63.4115 25.4766 63.3854 25.9453 63.5156 26.4141C63.9323 26.1276 64.5052 25.737 65.2344 25.2422C65.9896 24.7214 66.7969 24.1875 67.6562 23.6406C68.5417 23.0938 69.4531 22.5599 70.3906 22.0391C71.3542 21.5182 72.2526 21.1146 73.0859 20.8281C73.9193 20.5156 74.6615 20.3464 75.3125 20.3203C75.9896 20.2943 76.4844 20.4896 76.7969 20.9062C77.1094 21.3229 77.2005 22.013 77.0703 22.9766C76.9661 23.9141 76.5625 25.2031 75.8594 26.8438C75.7812 27.026 75.5859 27.4688 75.2734 28.1719C74.987 28.849 74.6615 29.5911 74.2969 30.3984C73.9583 31.1797 73.6328 31.9219 73.3203 32.625C73.0339 33.3021 72.8516 33.7318 72.7734 33.9141C72.7474 34.0182 72.7083 34.2135 72.6562 34.5C72.6302 34.7604 72.5911 35.0599 72.5391 35.3984C72.487 35.7109 72.4089 36.0234 72.3047 36.3359C72.2005 36.6224 72.0703 36.8438 71.9141 37C71.7578 37.1562 71.5755 37.1432 71.3672 36.9609C71.1589 36.7526 71.0417 36.6224 71.0156 36.5703ZM81.6016 36.5703C80.8203 36.3099 80.2214 35.9193 79.8047 35.3984C79.4141 34.8516 79.1536 34.2526 79.0234 33.6016C78.8932 32.9505 78.8672 32.2734 78.9453 31.5703C79.0495 30.8411 79.2057 30.151 79.4141 29.5C80.1953 28.6667 81.0677 27.7161 82.0312 26.6484C83.0208 25.5547 84.0625 24.487 85.1562 23.4453C86.25 22.4036 87.3828 21.4401 88.5547 20.5547C89.7526 19.6432 90.9635 18.9531 92.1875 18.4844C92.6042 18.3021 92.9297 18.3151 93.1641 18.5234C93.4245 18.7057 93.6068 19.0052 93.7109 19.4219C93.8151 19.8385 93.8542 20.3203 93.8281 20.8672C93.8281 21.4141 93.7891 21.9479 93.7109 22.4688C93.6328 22.9896 93.5286 23.4583 93.3984 23.875C93.2682 24.2917 93.138 24.5781 93.0078 24.7344C92.6953 25.099 92.0833 25.5286 91.1719 26.0234C90.2865 26.5182 89.2969 27.0651 88.2031 27.6641C87.1094 28.237 86.0156 28.8359 84.9219 29.4609C83.8281 30.0859 82.9297 30.7109 82.2266 31.3359C81.5234 31.9349 81.1068 32.5339 80.9766 33.1328C80.8464 33.7318 81.2109 34.2786 82.0703 34.7734C82.9557 34.8776 84.0234 34.8385 85.2734 34.6562C86.5495 34.4479 87.8385 34.1875 89.1406 33.875C90.4688 33.5365 91.7448 33.1979 92.9688 32.8594C94.1927 32.4948 95.1953 32.2083 95.9766 32L96.4453 32.4297C95.8724 33.1849 94.9349 33.875 93.6328 34.5C92.3307 35.125 90.9245 35.6458 89.4141 36.0625C87.9036 36.4531 86.4323 36.7135 85 36.8438C83.5677 36.9479 82.4349 36.8568 81.6016 36.5703ZM90.9375 21.6484C90.9115 21.6224 90.7161 21.7396 90.3516 22C89.987 22.2344 89.5312 22.5599 88.9844 22.9766C88.4635 23.3672 87.8906 23.8099 87.2656 24.3047C86.6667 24.7734 86.1068 25.2161 85.5859 25.6328C85.0911 26.0495 84.6745 26.4141 84.3359 26.7266C83.9974 27.013 83.8542 27.1562 83.9062 27.1562C84.3229 27.2344 84.8568 27.1823 85.5078 27C86.1849 26.7917 86.875 26.5052 87.5781 26.1406C88.3073 25.776 88.9974 25.3724 89.6484 24.9297C90.2995 24.4609 90.8073 24.0052 91.1719 23.5625C91.5625 23.1198 91.7578 22.7292 91.7578 22.3906C91.7839 22.0521 91.5104 21.8047 90.9375 21.6484ZM96.4062 36.5703C96.0938 36.362 96.0807 36.0885 96.3672 35.75C96.6797 35.3854 97.1615 35.0078 97.8125 34.6172C98.4896 34.2005 99.2708 33.7708 100.156 33.3281C101.042 32.8854 101.888 32.4688 102.695 32.0781C103.529 31.6875 104.258 31.349 104.883 31.0625C105.508 30.75 105.911 30.5156 106.094 30.3594C106.953 29.6302 107.396 29.0312 107.422 28.5625C107.474 28.0677 107.266 27.6771 106.797 27.3906C106.328 27.0781 105.664 26.8438 104.805 26.6875C103.971 26.5052 103.099 26.349 102.188 26.2188C101.302 26.0625 100.443 25.9062 99.6094 25.75C98.8021 25.5938 98.1901 25.3854 97.7734 25.125C97.3568 24.8646 97.2135 24.526 97.3438 24.1094C97.5 23.6667 98.0729 23.1068 99.0625 22.4297C99.4271 22.1693 99.9609 21.7917 100.664 21.2969C101.367 20.8021 102.122 20.2943 102.93 19.7734C103.763 19.2526 104.583 18.7839 105.391 18.3672C106.198 17.9505 106.875 17.6771 107.422 17.5469C107.708 17.4948 107.995 17.5208 108.281 17.625C108.594 17.7292 108.841 17.8854 109.023 18.0938C109.206 18.276 109.284 18.4844 109.258 18.7188C109.258 18.9531 109.089 19.1615 108.75 19.3438C107.266 20.1771 105.833 20.9583 104.453 21.6875C103.099 22.4167 101.732 23.25 100.352 24.1875C100.273 24.3958 100.286 24.5781 100.391 24.7344C100.521 24.8906 100.664 25.0078 100.82 25.0859C103.581 25.3724 105.651 25.776 107.031 26.2969C108.438 26.8177 109.323 27.3906 109.688 28.0156C110.078 28.6406 110.039 29.3047 109.57 30.0078C109.102 30.7109 108.398 31.401 107.461 32.0781C106.549 32.7552 105.495 33.3932 104.297 33.9922C103.099 34.5911 101.94 35.099 100.82 35.5156C99.7266 35.9323 98.763 36.2448 97.9297 36.4531C97.0964 36.6615 96.5885 36.7005 96.4062 36.5703ZM111.875 36.5703C111.562 36.362 111.549 36.0885 111.836 35.75C112.148 35.3854 112.63 35.0078 113.281 34.6172C113.958 34.2005 114.74 33.7708 115.625 33.3281C116.51 32.8854 117.357 32.4688 118.164 32.0781C118.997 31.6875 119.727 31.349 120.352 31.0625C120.977 30.75 121.38 30.5156 121.562 30.3594C122.422 29.6302 122.865 29.0312 122.891 28.5625C122.943 28.0677 122.734 27.6771 122.266 27.3906C121.797 27.0781 121.133 26.8438 120.273 26.6875C119.44 26.5052 118.568 26.349 117.656 26.2188C116.771 26.0625 115.911 25.9062 115.078 25.75C114.271 25.5938 113.659 25.3854 113.242 25.125C112.826 24.8646 112.682 24.526 112.812 24.1094C112.969 23.6667 113.542 23.1068 114.531 22.4297C114.896 22.1693 115.43 21.7917 116.133 21.2969C116.836 20.8021 117.591 20.2943 118.398 19.7734C119.232 19.2526 120.052 18.7839 120.859 18.3672C121.667 17.9505 122.344 17.6771 122.891 17.5469C123.177 17.4948 123.464 17.5208 123.75 17.625C124.062 17.7292 124.31 17.8854 124.492 18.0938C124.674 18.276 124.753 18.4844 124.727 18.7188C124.727 18.9531 124.557 19.1615 124.219 19.3438C122.734 20.1771 121.302 20.9583 119.922 21.6875C118.568 22.4167 117.201 23.25 115.82 24.1875C115.742 24.3958 115.755 24.5781 115.859 24.7344C115.99 24.8906 116.133 25.0078 116.289 25.0859C119.049 25.3724 121.12 25.776 122.5 26.2969C123.906 26.8177 124.792 27.3906 125.156 28.0156C125.547 28.6406 125.508 29.3047 125.039 30.0078C124.57 30.7109 123.867 31.401 122.93 32.0781C122.018 32.7552 120.964 33.3932 119.766 33.9922C118.568 34.5911 117.409 35.099 116.289 35.5156C115.195 35.9323 114.232 36.2448 113.398 36.4531C112.565 36.6615 112.057 36.7005 111.875 36.5703Z" fill="#E9E9E9"/>
</svg>
