<svg width="141" height="47" viewBox="0 0 141 47" fill="none" xmlns="http://www.w3.org/2000/svg">
<path d="M87.634 44.126C90.14 44.126 91.918 42.488 91.918 40.192C91.918 37.91 90.14 36.286 87.634 36.286C85.156 36.286 83.35 37.91 83.35 40.192C83.35 42.488 85.156 44.126 87.634 44.126ZM87.634 42.012C86.738 42.012 86.038 41.354 86.038 40.192C86.038 39.044 86.738 38.4 87.634 38.4C88.544 38.4 89.23 39.044 89.23 40.192C89.23 41.354 88.544 42.012 87.634 42.012ZM93.1655 44H95.8115V41.34H98.5415V44H101.202V36.412H98.5415V39.226H95.8115V36.412H93.1655V44ZM103.864 36.412L103.752 39.576C103.696 40.878 103.598 41.858 102.674 41.858C102.576 41.858 102.464 41.844 102.338 41.83L102.226 44C102.716 44.112 103.15 44.182 103.514 44.182C105.488 44.182 105.978 42.418 106.09 39.688L106.146 38.526H108.064V44H110.724V36.412H103.864ZM115.605 36.286C114.415 36.286 113.127 36.594 112.259 37.168L113.155 38.974C113.673 38.568 114.485 38.316 115.213 38.316C116.263 38.316 116.781 38.75 116.823 39.52H115.311C112.959 39.52 111.937 40.388 111.937 41.788C111.937 43.104 112.945 44.126 114.765 44.126C115.871 44.126 116.627 43.748 117.005 43.02V44H119.483V39.786C119.483 37.378 118.069 36.286 115.605 36.286ZM115.507 42.446C114.877 42.446 114.513 42.124 114.513 41.676C114.513 41.214 114.821 40.906 115.675 40.906H116.823V41.564C116.613 42.166 116.095 42.446 115.507 42.446ZM125.046 35.684C126.852 35.684 127.706 34.942 127.706 33.374H125.956C125.956 33.99 125.662 34.354 125.032 34.354C124.388 34.354 124.15 33.99 124.136 33.374H122.414C122.428 34.942 123.254 35.684 125.046 35.684ZM121.084 44H123.548L126.698 40.01V44H129.358V36.412H126.908L123.73 40.388V36.412H121.084V44ZM131.146 44H133.792V41.34H136.522V44H139.182V36.412H136.522V39.226H133.792V36.412H131.146V44Z" fill="white"/>
<path d="M0.527344 27.6777C0.429688 27.4043 0.400391 27.1309 0.439453 26.8574C0.498047 26.5645 0.585938 26.2715 0.703125 25.9785C0.820312 25.6855 0.947266 25.4023 1.08398 25.1289C1.24023 24.8555 1.36719 24.5918 1.46484 24.3379C1.5625 24.1426 1.71875 23.8008 1.93359 23.3125C2.16797 22.8047 2.40234 22.2773 2.63672 21.7305C2.89062 21.1641 3.125 20.627 3.33984 20.1191C3.55469 19.6113 3.71094 19.2598 3.80859 19.0645C3.92578 18.8301 3.90625 18.625 3.75 18.4492C3.61328 18.2539 3.45703 18.0684 3.28125 17.8926C3.125 17.7168 2.99805 17.541 2.90039 17.3652C2.82227 17.1895 2.90039 16.9844 3.13477 16.75C3.27148 16.6133 3.44727 16.5254 3.66211 16.4863C3.87695 16.4473 4.10156 16.418 4.33594 16.3984C4.57031 16.3594 4.78516 16.3008 4.98047 16.2227C5.17578 16.1445 5.33203 15.9883 5.44922 15.7539L8.78906 9.42578C8.65234 8.89844 8.60352 8.45898 8.64258 8.10742C8.70117 7.75586 8.81836 7.45312 8.99414 7.19922C9.18945 6.94531 9.43359 6.71094 9.72656 6.49609C10.0391 6.28125 10.3906 6.03711 10.7812 5.76367C12.793 5.45117 14.7656 5.1875 16.6992 4.97266C18.6523 4.75781 20.6543 4.69922 22.7051 4.79688C22.8223 4.81641 22.9688 4.9043 23.1445 5.06055C23.3203 5.19727 23.4668 5.36328 23.584 5.55859C23.7012 5.73438 23.75 5.91016 23.7305 6.08594C23.7305 6.26172 23.6035 6.37891 23.3496 6.4375C23.3301 6.4375 23.2715 6.42773 23.1738 6.4082C23.0762 6.36914 22.9688 6.33008 22.8516 6.29102C22.7344 6.25195 22.627 6.21289 22.5293 6.17383C22.4316 6.13477 22.373 6.11523 22.3535 6.11523C20.791 6.11523 19.4336 6.13477 18.2812 6.17383C17.1289 6.21289 16.123 6.30078 15.2637 6.4375C14.4238 6.55469 13.6914 6.74023 13.0664 6.99414C12.4609 7.24805 11.9141 7.59961 11.4258 8.04883C10.957 8.47852 10.5078 9.02539 10.0781 9.68945C9.66797 10.3535 9.23828 11.1641 8.78906 12.1211C8.57422 12.5312 8.37891 12.9219 8.20312 13.293C8.04688 13.625 7.91992 13.957 7.82227 14.2891C7.72461 14.6016 7.71484 14.8652 7.79297 15.0801C8.88672 15.2754 9.99023 15.2559 11.1035 15.0215C12.2363 14.7871 13.3691 14.5039 14.502 14.1719C15.6348 13.8398 16.7676 13.5469 17.9004 13.293C19.0527 13.0195 20.2051 12.9512 21.3574 13.0879V13.7617C21.3574 13.8008 20.9961 13.8887 20.2734 14.0254C19.5508 14.1426 18.623 14.3184 17.4902 14.5527C16.377 14.7676 15.1465 15.041 13.7988 15.373C12.4707 15.6855 11.1914 16.0566 9.96094 16.4863C8.73047 16.916 7.64648 17.4043 6.70898 17.9512C5.77148 18.498 5.13672 19.0938 4.80469 19.7383C4.17969 21.0078 3.58398 22.3164 3.01758 23.6641C2.45117 24.9922 1.93359 26.3301 1.46484 27.6777C1.34766 27.8535 1.18164 27.9609 0.966797 28C0.771484 28.0391 0.625 27.9316 0.527344 27.6777ZM22.1191 27.6777C22.9199 25.0996 23.6426 23.0586 24.2871 21.5547C24.9512 20.0312 25.498 18.9668 25.9277 18.3613C26.377 17.7559 26.6797 17.5605 26.8359 17.7754C26.9922 17.9902 26.9727 18.5371 26.7773 19.416C26.6016 20.2949 26.2109 21.4766 25.6055 22.9609C25.0195 24.4258 24.1895 26.1055 23.1152 28C22.959 28.0586 22.7734 28.0684 22.5586 28.0293C22.3438 27.9902 22.1973 27.873 22.1191 27.6777ZM27.2461 13.5859C27.207 13.4883 27.1875 13.3125 27.1875 13.0586C27.1875 12.8047 27.207 12.6484 27.2461 12.5898C27.6953 12.4336 28.0371 12.4141 28.2715 12.5312C28.5059 12.6484 28.6523 12.8242 28.7109 13.0586C28.7695 13.2734 28.7598 13.5078 28.6816 13.7617C28.623 14.0156 28.5156 14.2109 28.3594 14.3477C28.2031 14.4648 28.0176 14.4844 27.8027 14.4062C27.6074 14.3086 27.4219 14.0352 27.2461 13.5859ZM31.9043 27.6777C31.8848 27.6387 31.875 27.5312 31.875 27.3555C31.875 27.1797 31.8848 27.0625 31.9043 27.0039C31.9629 26.7891 32.0703 26.418 32.2266 25.8906C32.3828 25.3438 32.5488 24.7773 32.7246 24.1914C32.9004 23.5859 33.0664 23.0195 33.2227 22.4922C33.3789 21.9648 33.4863 21.5938 33.5449 21.3789C33.623 21.1055 33.7109 20.793 33.8086 20.4414C33.9062 20.0703 33.9258 19.7188 33.8672 19.3867C33.5742 19.3477 33.2129 19.3867 32.7832 19.5039C32.3535 19.6016 31.9238 19.6895 31.4941 19.7676C31.084 19.8262 30.6934 19.8262 30.3223 19.7676C29.9707 19.6895 29.7168 19.4551 29.5605 19.0645C29.7949 18.5762 30.1465 18.2637 30.6152 18.127C31.084 17.9707 31.5918 17.8633 32.1387 17.8047C32.6855 17.7461 33.2031 17.6582 33.6914 17.541C34.1992 17.4238 34.5996 17.1602 34.8926 16.75C35.0684 16.2422 35.2734 15.627 35.5078 14.9043C35.7617 14.1621 36.0254 13.3906 36.2988 12.5898C36.5723 11.7891 36.8652 10.998 37.1777 10.2168C37.5098 9.43555 37.8516 8.74219 38.2031 8.13672C38.418 8 38.5938 7.99023 38.7305 8.10742C38.8672 8.22461 38.9648 8.40039 39.0234 8.63477C39.1016 8.84961 39.1504 9.07422 39.1699 9.30859C39.1895 9.54297 39.1895 9.69922 39.1699 9.77734C39.0527 10.2852 38.8477 10.832 38.5547 11.418C38.2812 11.9844 38.0176 12.5605 37.7637 13.1465C37.5293 13.7324 37.334 14.3184 37.1777 14.9043C37.041 15.4902 37.041 16.0469 37.1777 16.5742H43.4766C43.4961 16.5742 43.5449 16.6426 43.623 16.7793C43.7012 16.8965 43.7695 16.9941 43.8281 17.0723C43.9258 17.3457 43.8184 17.5312 43.5059 17.6289C43.1934 17.7266 42.7734 17.7949 42.2461 17.834C41.7188 17.8535 41.1133 17.873 40.4297 17.8926C39.7656 17.8926 39.1211 17.9414 38.4961 18.0391C37.8906 18.1172 37.3438 18.2637 36.8555 18.4785C36.3672 18.6738 36.0352 18.9766 35.8594 19.3867C35.3516 20.6953 34.8828 22.0137 34.4531 23.3418C34.0234 24.6504 33.6133 25.9785 33.2227 27.3262C33.1836 27.3848 33.1055 27.4824 32.9883 27.6191C32.8711 27.7363 32.7441 27.8438 32.6074 27.9414C32.4707 28.0195 32.334 28.0488 32.1973 28.0293C32.0801 28.0098 31.9824 27.8926 31.9043 27.6777ZM53.2617 27.6777C53.2031 27.0332 53.252 26.3984 53.4082 25.7734C53.584 25.1289 53.8086 24.5039 54.082 23.8984C54.375 23.2734 54.6777 22.6582 54.9902 22.0527C55.3223 21.4277 55.6055 20.8223 55.8398 20.2363C56.0742 19.6309 56.2402 19.0449 56.3379 18.4785C56.4355 17.8926 56.3965 17.3164 56.2207 16.75C55.7324 16.5742 55.166 16.6133 54.5215 16.8672C53.8965 17.1211 53.2324 17.5117 52.5293 18.0391C51.8262 18.5469 51.0938 19.1523 50.332 19.8555C49.5898 20.5391 48.8574 21.2422 48.1348 21.9648C47.4316 22.668 46.7578 23.3418 46.1133 23.9863C45.4688 24.6309 44.8828 25.168 44.3555 25.5977C43.8477 26.0078 43.418 26.2715 43.0664 26.3887C42.7148 26.4863 42.4805 26.3594 42.3633 26.0078C42.3438 25.9883 42.4512 25.7441 42.6855 25.2754C42.9395 24.7871 43.2422 24.1816 43.5938 23.459C43.9648 22.7363 44.3652 21.9551 44.7949 21.1152C45.2441 20.2754 45.6641 19.4941 46.0547 18.7715C46.4453 18.0293 46.7871 17.4043 47.0801 16.8965C47.373 16.3887 47.5586 16.1152 47.6367 16.0762C48.0469 16.3496 48.252 16.6523 48.252 16.9844C48.2715 17.2969 48.2227 17.6289 48.1055 17.9805C47.9883 18.3125 47.8516 18.6543 47.6953 19.0059C47.5586 19.3574 47.5391 19.709 47.6367 20.0605C47.9492 19.8457 48.3789 19.5527 48.9258 19.1816C49.4922 18.791 50.0977 18.3906 50.7422 17.9805C51.4062 17.5703 52.0898 17.1699 52.793 16.7793C53.5156 16.3887 54.1895 16.0859 54.8145 15.8711C55.4395 15.6367 55.9961 15.5098 56.4844 15.4902C56.9922 15.4707 57.3633 15.6172 57.5977 15.9297C57.832 16.2422 57.9004 16.7598 57.8027 17.4824C57.7246 18.1855 57.4219 19.1523 56.8945 20.3828C56.8359 20.5195 56.6895 20.8516 56.4551 21.3789C56.2402 21.8867 55.9961 22.4434 55.7227 23.0488C55.4688 23.6348 55.2246 24.1914 54.9902 24.7188C54.7754 25.2266 54.6387 25.5488 54.5801 25.6855C54.5605 25.7637 54.5312 25.9102 54.4922 26.125C54.4727 26.3203 54.4434 26.5449 54.4043 26.7988C54.3652 27.0332 54.3066 27.2676 54.2285 27.502C54.1504 27.7168 54.0527 27.8828 53.9355 28C53.8184 28.1172 53.6816 28.1074 53.5254 27.9707C53.3691 27.8145 53.2812 27.7168 53.2617 27.6777ZM61.2012 27.6777C60.6152 27.4824 60.166 27.1895 59.8535 26.7988C59.5605 26.3887 59.3652 25.9395 59.2676 25.4512C59.1699 24.9629 59.1504 24.4551 59.209 23.9277C59.2871 23.3809 59.4043 22.8633 59.5605 22.375C60.1465 21.75 60.8008 21.0371 61.5234 20.2363C62.2656 19.416 63.0469 18.6152 63.8672 17.834C64.6875 17.0527 65.5371 16.3301 66.416 15.666C67.3145 14.9824 68.2227 14.4648 69.1406 14.1133C69.4531 13.9766 69.6973 13.9863 69.873 14.1426C70.0684 14.2793 70.2051 14.5039 70.2832 14.8164C70.3613 15.1289 70.3906 15.4902 70.3711 15.9004C70.3711 16.3105 70.3418 16.7109 70.2832 17.1016C70.2246 17.4922 70.1465 17.8438 70.0488 18.1562C69.9512 18.4688 69.8535 18.6836 69.7559 18.8008C69.5215 19.0742 69.0625 19.3965 68.3789 19.7676C67.7148 20.1387 66.9727 20.5488 66.1523 20.998C65.332 21.4277 64.5117 21.877 63.6914 22.3457C62.8711 22.8145 62.1973 23.2832 61.6699 23.752C61.1426 24.2012 60.8301 24.6504 60.7324 25.0996C60.6348 25.5488 60.9082 25.959 61.5527 26.3301C62.2168 26.4082 63.0176 26.3789 63.9551 26.2422C64.9121 26.0859 65.8789 25.8906 66.8555 25.6562C67.8516 25.4023 68.8086 25.1484 69.7266 24.8945C70.6445 24.6211 71.3965 24.4062 71.9824 24.25L72.334 24.5723C71.9043 25.1387 71.2012 25.6562 70.2246 26.125C69.248 26.5938 68.1934 26.9844 67.0605 27.2969C65.9277 27.5898 64.8242 27.7852 63.75 27.8828C62.6758 27.9609 61.8262 27.8926 61.2012 27.6777ZM68.2031 16.4863C68.1836 16.4668 68.0371 16.5547 67.7637 16.75C67.4902 16.9258 67.1484 17.1699 66.7383 17.4824C66.3477 17.7754 65.918 18.1074 65.4492 18.4785C65 18.8301 64.5801 19.1621 64.1895 19.4746C63.8184 19.7871 63.5059 20.0605 63.252 20.2949C62.998 20.5098 62.8906 20.6172 62.9297 20.6172C63.2422 20.6758 63.6426 20.6367 64.1309 20.5C64.6387 20.3438 65.1562 20.1289 65.6836 19.8555C66.2305 19.582 66.748 19.2793 67.2363 18.9473C67.7246 18.5957 68.1055 18.2539 68.3789 17.9219C68.6719 17.5898 68.8184 17.2969 68.8184 17.043C68.8379 16.7891 68.6328 16.6035 68.2031 16.4863ZM72.3047 27.6777C72.0703 27.5215 72.0605 27.3164 72.2754 27.0625C72.5098 26.7891 72.8711 26.5059 73.3594 26.2129C73.8672 25.9004 74.4531 25.5781 75.1172 25.2461C75.7812 24.9141 76.416 24.6016 77.0215 24.3086C77.6465 24.0156 78.1934 23.7617 78.6621 23.5469C79.1309 23.3125 79.4336 23.1367 79.5703 23.0195C80.2148 22.4727 80.5469 22.0234 80.5664 21.6719C80.6055 21.3008 80.4492 21.0078 80.0977 20.793C79.7461 20.5586 79.248 20.3828 78.6035 20.2656C77.9785 20.1289 77.3242 20.0117 76.6406 19.9141C75.9766 19.7969 75.332 19.6797 74.707 19.5625C74.1016 19.4453 73.6426 19.2891 73.3301 19.0938C73.0176 18.8984 72.9102 18.6445 73.0078 18.332C73.125 18 73.5547 17.5801 74.2969 17.0723C74.5703 16.877 74.9707 16.5938 75.498 16.2227C76.0254 15.8516 76.5918 15.4707 77.1973 15.0801C77.8223 14.6895 78.4375 14.3379 79.043 14.0254C79.6484 13.7129 80.1562 13.5078 80.5664 13.4102C80.7812 13.3711 80.9961 13.3906 81.2109 13.4688C81.4453 13.5469 81.6309 13.6641 81.7676 13.8203C81.9043 13.957 81.9629 14.1133 81.9434 14.2891C81.9434 14.4648 81.8164 14.6211 81.5625 14.7578C80.4492 15.3828 79.375 15.9688 78.3398 16.5156C77.3242 17.0625 76.2988 17.6875 75.2637 18.3906C75.2051 18.5469 75.2148 18.6836 75.293 18.8008C75.3906 18.918 75.498 19.0059 75.6152 19.0645C77.6855 19.2793 79.2383 19.582 80.2734 19.9727C81.3281 20.3633 81.9922 20.793 82.2656 21.2617C82.5586 21.7305 82.5293 22.2285 82.1777 22.7559C81.8262 23.2832 81.2988 23.8008 80.5957 24.3086C79.9121 24.8164 79.1211 25.2949 78.2227 25.7441C77.3242 26.1934 76.4551 26.5742 75.6152 26.8867C74.7949 27.1992 74.0723 27.4336 73.4473 27.5898C72.8223 27.7461 72.4414 27.7754 72.3047 27.6777ZM83.9062 27.6777C83.6719 27.5215 83.6621 27.3164 83.877 27.0625C84.1113 26.7891 84.4727 26.5059 84.9609 26.2129C85.4688 25.9004 86.0547 25.5781 86.7188 25.2461C87.3828 24.9141 88.0176 24.6016 88.623 24.3086C89.248 24.0156 89.7949 23.7617 90.2637 23.5469C90.7324 23.3125 91.0352 23.1367 91.1719 23.0195C91.8164 22.4727 92.1484 22.0234 92.168 21.6719C92.207 21.3008 92.0508 21.0078 91.6992 20.793C91.3477 20.5586 90.8496 20.3828 90.2051 20.2656C89.5801 20.1289 88.9258 20.0117 88.2422 19.9141C87.5781 19.7969 86.9336 19.6797 86.3086 19.5625C85.7031 19.4453 85.2441 19.2891 84.9316 19.0938C84.6191 18.8984 84.5117 18.6445 84.6094 18.332C84.7266 18 85.1562 17.5801 85.8984 17.0723C86.1719 16.877 86.5723 16.5938 87.0996 16.2227C87.627 15.8516 88.1934 15.4707 88.7988 15.0801C89.4238 14.6895 90.0391 14.3379 90.6445 14.0254C91.25 13.7129 91.7578 13.5078 92.168 13.4102C92.3828 13.3711 92.5977 13.3906 92.8125 13.4688C93.0469 13.5469 93.2324 13.6641 93.3691 13.8203C93.5059 13.957 93.5645 14.1133 93.5449 14.2891C93.5449 14.4648 93.418 14.6211 93.1641 14.7578C92.0508 15.3828 90.9766 15.9688 89.9414 16.5156C88.9258 17.0625 87.9004 17.6875 86.8652 18.3906C86.8066 18.5469 86.8164 18.6836 86.8945 18.8008C86.9922 18.918 87.0996 19.0059 87.2168 19.0645C89.2871 19.2793 90.8398 19.582 91.875 19.9727C92.9297 20.3633 93.5938 20.793 93.8672 21.2617C94.1602 21.7305 94.1309 22.2285 93.7793 22.7559C93.4277 23.2832 92.9004 23.8008 92.1973 24.3086C91.5137 24.8164 90.7227 25.2949 89.8242 25.7441C88.9258 26.1934 88.0566 26.5742 87.2168 26.8867C86.3965 27.1992 85.6738 27.4336 85.0488 27.5898C84.4238 27.7461 84.043 27.7754 83.9062 27.6777Z" fill="white"/>
</svg>
