<svg width="189" height="64" viewBox="0 0 189 64" fill="none" xmlns="http://www.w3.org/2000/svg">
<path d="M128.296 60.144C131.16 60.144 133.192 58.272 133.192 55.648C133.192 53.04 131.16 51.184 128.296 51.184C125.464 51.184 123.4 53.04 123.4 55.648C123.4 58.272 125.464 60.144 128.296 60.144ZM128.296 57.728C127.272 57.728 126.472 56.976 126.472 55.648C126.472 54.336 127.272 53.6 128.296 53.6C129.336 53.6 130.12 54.336 130.12 55.648C130.12 56.976 129.336 57.728 128.296 57.728ZM134.618 60H137.642V56.96H140.762V60H143.802V51.328H140.762V54.544H137.642V51.328H134.618V60ZM146.844 51.328L146.716 54.944C146.652 56.432 146.54 57.552 145.484 57.552C145.372 57.552 145.244 57.536 145.1 57.52L144.972 60C145.532 60.128 146.028 60.208 146.444 60.208C148.7 60.208 149.26 58.192 149.388 55.072L149.452 53.744H151.644V60H154.684V51.328H146.844ZM160.263 51.184C158.903 51.184 157.431 51.536 156.439 52.192L157.463 54.256C158.055 53.792 158.983 53.504 159.815 53.504C161.015 53.504 161.607 54 161.655 54.88H159.927C157.239 54.88 156.071 55.872 156.071 57.472C156.071 58.976 157.223 60.144 159.303 60.144C160.567 60.144 161.431 59.712 161.863 58.88V60H164.695V55.184C164.695 52.432 163.079 51.184 160.263 51.184ZM160.151 58.224C159.431 58.224 159.015 57.856 159.015 57.344C159.015 56.816 159.367 56.464 160.343 56.464H161.655V57.216C161.415 57.904 160.823 58.224 160.151 58.224ZM171.052 50.496C173.116 50.496 174.092 49.648 174.092 47.856H172.092C172.092 48.56 171.756 48.976 171.036 48.976C170.3 48.976 170.028 48.56 170.012 47.856H168.044C168.06 49.648 169.004 50.496 171.052 50.496ZM166.524 60H169.34L172.94 55.44V60H175.98V51.328H173.18L169.548 55.872V51.328H166.524V60ZM178.024 60H181.048V56.96H184.168V60H187.208V51.328H184.168V54.544H181.048V51.328H178.024V60Z" fill="#E9E9E9"/>
<path d="M0.791016 41.5166C0.644531 41.1064 0.600586 40.6963 0.65918 40.2861C0.74707 39.8467 0.878906 39.4072 1.05469 38.9678C1.23047 38.5283 1.4209 38.1035 1.62598 37.6934C1.86035 37.2832 2.05078 36.8877 2.19727 36.5068C2.34375 36.2139 2.57812 35.7012 2.90039 34.9688C3.25195 34.207 3.60352 33.416 3.95508 32.5957C4.33594 31.7461 4.6875 30.9404 5.00977 30.1787C5.33203 29.417 5.56641 28.8896 5.71289 28.5967C5.88867 28.2451 5.85938 27.9375 5.625 27.6738C5.41992 27.3809 5.18555 27.1025 4.92188 26.8389C4.6875 26.5752 4.49707 26.3115 4.35059 26.0479C4.2334 25.7842 4.35059 25.4766 4.70215 25.125C4.90723 24.9199 5.1709 24.7881 5.49316 24.7295C5.81543 24.6709 6.15234 24.627 6.50391 24.5977C6.85547 24.5391 7.17773 24.4512 7.4707 24.334C7.76367 24.2168 7.99805 23.9824 8.17383 23.6309L13.1836 14.1387C12.9785 13.3477 12.9053 12.6885 12.9639 12.1611C13.0518 11.6338 13.2275 11.1797 13.4912 10.7988C13.7842 10.418 14.1504 10.0664 14.5898 9.74414C15.0586 9.42187 15.5859 9.05566 16.1719 8.64551C19.1895 8.17676 22.1484 7.78125 25.0488 7.45898C27.9785 7.13672 30.9814 7.04883 34.0576 7.19531C34.2334 7.22461 34.4531 7.35645 34.7168 7.59082C34.9805 7.7959 35.2002 8.04492 35.376 8.33789C35.5518 8.60156 35.625 8.86523 35.5957 9.12891C35.5957 9.39258 35.4053 9.56836 35.0244 9.65625C34.9951 9.65625 34.9072 9.6416 34.7607 9.6123C34.6143 9.55371 34.4531 9.49512 34.2773 9.43652C34.1016 9.37793 33.9404 9.31934 33.7939 9.26074C33.6475 9.20215 33.5596 9.17285 33.5303 9.17285C31.1865 9.17285 29.1504 9.20215 27.4219 9.26074C25.6934 9.31934 24.1846 9.45117 22.8955 9.65625C21.6357 9.83203 20.5371 10.1104 19.5996 10.4912C18.6914 10.8721 17.8711 11.3994 17.1387 12.0732C16.4355 12.7178 15.7617 13.5381 15.1172 14.5342C14.502 15.5303 13.8574 16.7461 13.1836 18.1816C12.8613 18.7969 12.5684 19.3828 12.3047 19.9395C12.0703 20.4375 11.8799 20.9355 11.7334 21.4336C11.5869 21.9023 11.5723 22.2979 11.6895 22.6201C13.3301 22.9131 14.9854 22.8838 16.6553 22.5322C18.3545 22.1807 20.0537 21.7559 21.7529 21.2578C23.4521 20.7598 25.1514 20.3203 26.8506 19.9395C28.5791 19.5293 30.3076 19.4268 32.0361 19.6318V20.6426C32.0361 20.7012 31.4941 20.833 30.4102 21.0381C29.3262 21.2139 27.9346 21.4775 26.2354 21.8291C24.5654 22.1514 22.7197 22.5615 20.6982 23.0596C18.7061 23.5283 16.7871 24.085 14.9414 24.7295C13.0957 25.374 11.4697 26.1064 10.0635 26.9268C8.65723 27.7471 7.70508 28.6406 7.20703 29.6074C6.26953 31.5117 5.37598 33.4746 4.52637 35.4961C3.67676 37.4883 2.90039 39.4951 2.19727 41.5166C2.02148 41.7803 1.77246 41.9414 1.4502 42C1.15723 42.0586 0.9375 41.8975 0.791016 41.5166ZM33.1787 41.5166C34.3799 37.6494 35.4639 34.5879 36.4307 32.332C37.4268 30.0469 38.2471 28.4502 38.8916 27.542C39.5654 26.6338 40.0195 26.3408 40.2539 26.6631C40.4883 26.9854 40.459 27.8057 40.166 29.124C39.9023 30.4424 39.3164 32.2148 38.4082 34.4414C37.5293 36.6387 36.2842 39.1582 34.6729 42C34.4385 42.0879 34.1602 42.1025 33.8379 42.0439C33.5156 41.9854 33.2959 41.8096 33.1787 41.5166ZM40.8691 20.3789C40.8105 20.2324 40.7812 19.9688 40.7812 19.5879C40.7812 19.207 40.8105 18.9727 40.8691 18.8848C41.543 18.6504 42.0557 18.6211 42.4072 18.7969C42.7588 18.9727 42.9785 19.2363 43.0664 19.5879C43.1543 19.9102 43.1396 20.2617 43.0225 20.6426C42.9346 21.0234 42.7734 21.3164 42.5391 21.5215C42.3047 21.6973 42.0264 21.7266 41.7041 21.6094C41.4111 21.4629 41.1328 21.0527 40.8691 20.3789ZM47.8564 41.5166C47.8271 41.458 47.8125 41.2969 47.8125 41.0332C47.8125 40.7695 47.8271 40.5938 47.8564 40.5059C47.9443 40.1836 48.1055 39.627 48.3398 38.8359C48.5742 38.0156 48.8232 37.166 49.0869 36.2871C49.3506 35.3789 49.5996 34.5293 49.834 33.7383C50.0684 32.9473 50.2295 32.3906 50.3174 32.0684C50.4346 31.6582 50.5664 31.1895 50.7129 30.6621C50.8594 30.1055 50.8887 29.5781 50.8008 29.0801C50.3613 29.0215 49.8193 29.0801 49.1748 29.2559C48.5303 29.4023 47.8857 29.5342 47.2412 29.6514C46.626 29.7393 46.04 29.7393 45.4834 29.6514C44.9561 29.5342 44.5752 29.1826 44.3408 28.5967C44.6924 27.8643 45.2197 27.3955 45.9229 27.1904C46.626 26.9561 47.3877 26.7949 48.208 26.707C49.0283 26.6191 49.8047 26.4873 50.5371 26.3115C51.2988 26.1357 51.8994 25.7402 52.3389 25.125C52.6025 24.3633 52.9102 23.4404 53.2617 22.3564C53.6426 21.2432 54.0381 20.0859 54.4482 18.8848C54.8584 17.6836 55.2979 16.4971 55.7666 15.3252C56.2646 14.1533 56.7773 13.1133 57.3047 12.2051C57.627 12 57.8906 11.9854 58.0957 12.1611C58.3008 12.3369 58.4473 12.6006 58.5352 12.9521C58.6523 13.2744 58.7256 13.6113 58.7549 13.9629C58.7842 14.3145 58.7842 14.5488 58.7549 14.666C58.5791 15.4277 58.2715 16.248 57.832 17.127C57.4219 17.9766 57.0264 18.8408 56.6455 19.7197C56.2939 20.5986 56.001 21.4775 55.7666 22.3564C55.5615 23.2354 55.5615 24.0703 55.7666 24.8613H65.2148C65.2441 24.8613 65.3174 24.9639 65.4346 25.1689C65.5518 25.3447 65.6543 25.4912 65.7422 25.6084C65.8887 26.0186 65.7275 26.2969 65.2588 26.4434C64.79 26.5898 64.1602 26.6924 63.3691 26.751C62.5781 26.7803 61.6699 26.8096 60.6445 26.8389C59.6484 26.8389 58.6816 26.9121 57.7441 27.0586C56.8359 27.1758 56.0156 27.3955 55.2832 27.7178C54.5508 28.0107 54.0527 28.4648 53.7891 29.0801C53.0273 31.043 52.3242 33.0205 51.6797 35.0127C51.0352 36.9756 50.4199 38.9678 49.834 40.9893C49.7754 41.0771 49.6582 41.2236 49.4824 41.4287C49.3066 41.6045 49.1162 41.7656 48.9111 41.9121C48.7061 42.0293 48.501 42.0732 48.2959 42.0439C48.1201 42.0146 47.9736 41.8389 47.8564 41.5166ZM79.8926 41.5166C79.8047 40.5498 79.8779 39.5977 80.1123 38.6602C80.376 37.6934 80.7129 36.7559 81.123 35.8477C81.5625 34.9102 82.0166 33.9873 82.4854 33.0791C82.9834 32.1416 83.4082 31.2334 83.7598 30.3545C84.1113 29.4463 84.3604 28.5674 84.5068 27.7178C84.6533 26.8389 84.5947 25.9746 84.3311 25.125C83.5986 24.8613 82.749 24.9199 81.7822 25.3008C80.8447 25.6816 79.8486 26.2676 78.7939 27.0586C77.7393 27.8203 76.6406 28.7285 75.498 29.7832C74.3848 30.8086 73.2861 31.8633 72.2021 32.9473C71.1475 34.002 70.1367 35.0127 69.1699 35.9795C68.2031 36.9463 67.3242 37.752 66.5332 38.3965C65.7715 39.0117 65.127 39.4072 64.5996 39.583C64.0723 39.7295 63.7207 39.5391 63.5449 39.0117C63.5156 38.9824 63.6768 38.6162 64.0283 37.9131C64.4092 37.1807 64.8633 36.2725 65.3906 35.1885C65.9473 34.1045 66.5479 32.9326 67.1924 31.6729C67.8662 30.4131 68.4961 29.2412 69.082 28.1572C69.668 27.0439 70.1807 26.1064 70.6201 25.3447C71.0596 24.583 71.3379 24.1729 71.4551 24.1143C72.0703 24.5244 72.3779 24.9785 72.3779 25.4766C72.4072 25.9453 72.334 26.4434 72.1582 26.9707C71.9824 27.4688 71.7773 27.9814 71.543 28.5088C71.3379 29.0361 71.3086 29.5635 71.4551 30.0908C71.9238 29.7686 72.5684 29.3291 73.3887 28.7725C74.2383 28.1865 75.1465 27.5859 76.1133 26.9707C77.1094 26.3555 78.1348 25.7549 79.1895 25.1689C80.2734 24.583 81.2842 24.1289 82.2217 23.8066C83.1592 23.4551 83.9941 23.2646 84.7266 23.2354C85.4883 23.2061 86.0449 23.4258 86.3965 23.8945C86.748 24.3633 86.8506 25.1396 86.7041 26.2236C86.5869 27.2783 86.1328 28.7285 85.3418 30.5742C85.2539 30.7793 85.0342 31.2773 84.6826 32.0684C84.3604 32.8301 83.9941 33.665 83.584 34.5732C83.2031 35.4521 82.8369 36.2871 82.4854 37.0781C82.1631 37.8398 81.958 38.3232 81.8701 38.5283C81.8408 38.6455 81.7969 38.8652 81.7383 39.1875C81.709 39.4805 81.665 39.8174 81.6064 40.1982C81.5479 40.5498 81.46 40.9014 81.3428 41.2529C81.2256 41.5752 81.0791 41.8242 80.9033 42C80.7275 42.1758 80.5225 42.1611 80.2881 41.9561C80.0537 41.7217 79.9219 41.5752 79.8926 41.5166ZM91.8018 41.5166C90.9229 41.2236 90.249 40.7842 89.7803 40.1982C89.3408 39.583 89.0479 38.9092 88.9014 38.1768C88.7549 37.4443 88.7256 36.6826 88.8135 35.8916C88.9307 35.0713 89.1064 34.2949 89.3408 33.5625C90.2197 32.625 91.2012 31.5557 92.2852 30.3545C93.3984 29.124 94.5703 27.9229 95.8008 26.751C97.0312 25.5791 98.3057 24.4951 99.624 23.499C100.972 22.4736 102.334 21.6973 103.711 21.1699C104.18 20.9648 104.546 20.9795 104.81 21.2139C105.103 21.4189 105.308 21.7559 105.425 22.2246C105.542 22.6934 105.586 23.2354 105.557 23.8506C105.557 24.4658 105.513 25.0664 105.425 25.6523C105.337 26.2383 105.22 26.7656 105.073 27.2344C104.927 27.7031 104.78 28.0254 104.634 28.2012C104.282 28.6113 103.594 29.0947 102.568 29.6514C101.572 30.208 100.459 30.8232 99.2285 31.4971C97.998 32.1416 96.7676 32.8154 95.5371 33.5186C94.3066 34.2217 93.2959 34.9248 92.5049 35.6279C91.7139 36.3018 91.2451 36.9756 91.0986 37.6494C90.9521 38.3232 91.3623 38.9385 92.3291 39.4951C93.3252 39.6123 94.5264 39.5684 95.9326 39.3633C97.3682 39.1289 98.8184 38.8359 100.283 38.4844C101.777 38.1035 103.213 37.7227 104.59 37.3418C105.967 36.9316 107.095 36.6094 107.974 36.375L108.501 36.8584C107.856 37.708 106.802 38.4844 105.337 39.1875C103.872 39.8906 102.29 40.4766 100.591 40.9453C98.8916 41.3848 97.2363 41.6777 95.625 41.8242C94.0137 41.9414 92.7393 41.8389 91.8018 41.5166ZM102.305 24.7295C102.275 24.7002 102.056 24.832 101.646 25.125C101.235 25.3887 100.723 25.7549 100.107 26.2236C99.5215 26.6631 98.877 27.1611 98.1738 27.7178C97.5 28.2451 96.8701 28.7432 96.2842 29.2119C95.7275 29.6807 95.2588 30.0908 94.8779 30.4424C94.4971 30.7646 94.3359 30.9258 94.3945 30.9258C94.8633 31.0137 95.4639 30.9551 96.1963 30.75C96.958 30.5156 97.7344 30.1934 98.5254 29.7832C99.3457 29.373 100.122 28.9189 100.854 28.4209C101.587 27.8936 102.158 27.3809 102.568 26.8828C103.008 26.3848 103.228 25.9453 103.228 25.5645C103.257 25.1836 102.949 24.9053 102.305 24.7295ZM108.457 41.5166C108.105 41.2822 108.091 40.9746 108.413 40.5938C108.765 40.1836 109.307 39.7588 110.039 39.3193C110.801 38.8506 111.68 38.3672 112.676 37.8691C113.672 37.3711 114.624 36.9023 115.532 36.4629C116.47 36.0234 117.29 35.6426 117.993 35.3203C118.696 34.9688 119.15 34.7051 119.355 34.5293C120.322 33.709 120.82 33.0352 120.85 32.5078C120.908 31.9512 120.674 31.5117 120.146 31.1895C119.619 30.8379 118.872 30.5742 117.905 30.3984C116.968 30.1934 115.986 30.0176 114.961 29.8711C113.965 29.6953 112.998 29.5195 112.061 29.3438C111.152 29.168 110.464 28.9336 109.995 28.6406C109.526 28.3477 109.365 27.9668 109.512 27.498C109.688 27 110.332 26.3701 111.445 25.6084C111.855 25.3154 112.456 24.8906 113.247 24.334C114.038 23.7773 114.888 23.2061 115.796 22.6201C116.733 22.0342 117.656 21.5068 118.564 21.0381C119.473 20.5693 120.234 20.2617 120.85 20.1152C121.172 20.0566 121.494 20.0859 121.816 20.2031C122.168 20.3203 122.446 20.4961 122.651 20.7305C122.856 20.9355 122.944 21.1699 122.915 21.4336C122.915 21.6973 122.725 21.9316 122.344 22.1367C120.674 23.0742 119.062 23.9531 117.51 24.7734C115.986 25.5938 114.448 26.5312 112.896 27.5859C112.808 27.8203 112.822 28.0254 112.939 28.2012C113.086 28.377 113.247 28.5088 113.423 28.5967C116.528 28.9189 118.857 29.373 120.41 29.959C121.992 30.5449 122.988 31.1895 123.398 31.8926C123.838 32.5957 123.794 33.3428 123.267 34.1338C122.739 34.9248 121.948 35.7012 120.894 36.4629C119.868 37.2246 118.682 37.9424 117.334 38.6162C115.986 39.29 114.683 39.8613 113.423 40.3301C112.192 40.7988 111.108 41.1504 110.171 41.3848C109.233 41.6191 108.662 41.6631 108.457 41.5166ZM125.859 41.5166C125.508 41.2822 125.493 40.9746 125.815 40.5938C126.167 40.1836 126.709 39.7588 127.441 39.3193C128.203 38.8506 129.082 38.3672 130.078 37.8691C131.074 37.3711 132.026 36.9023 132.935 36.4629C133.872 36.0234 134.692 35.6426 135.396 35.3203C136.099 34.9688 136.553 34.7051 136.758 34.5293C137.725 33.709 138.223 33.0352 138.252 32.5078C138.311 31.9512 138.076 31.5117 137.549 31.1895C137.021 30.8379 136.274 30.5742 135.308 30.3984C134.37 30.1934 133.389 30.0176 132.363 29.8711C131.367 29.6953 130.4 29.5195 129.463 29.3438C128.555 29.168 127.866 28.9336 127.397 28.6406C126.929 28.3477 126.768 27.9668 126.914 27.498C127.09 27 127.734 26.3701 128.848 25.6084C129.258 25.3154 129.858 24.8906 130.649 24.334C131.44 23.7773 132.29 23.2061 133.198 22.6201C134.136 22.0342 135.059 21.5068 135.967 21.0381C136.875 20.5693 137.637 20.2617 138.252 20.1152C138.574 20.0566 138.896 20.0859 139.219 20.2031C139.57 20.3203 139.849 20.4961 140.054 20.7305C140.259 20.9355 140.347 21.1699 140.317 21.4336C140.317 21.6973 140.127 21.9316 139.746 22.1367C138.076 23.0742 136.465 23.9531 134.912 24.7734C133.389 25.5938 131.851 26.5312 130.298 27.5859C130.21 27.8203 130.225 28.0254 130.342 28.2012C130.488 28.377 130.649 28.5088 130.825 28.5967C133.931 28.9189 136.26 29.373 137.812 29.959C139.395 30.5449 140.391 31.1895 140.801 31.8926C141.24 32.5957 141.196 33.3428 140.669 34.1338C140.142 34.9248 139.351 35.7012 138.296 36.4629C137.271 37.2246 136.084 37.9424 134.736 38.6162C133.389 39.29 132.085 39.8613 130.825 40.3301C129.595 40.7988 128.511 41.1504 127.573 41.3848C126.636 41.6191 126.064 41.6631 125.859 41.5166Z" fill="#05AD5C"/>
</svg>
