<svg width="126" height="42" viewBox="0 0 126 42" fill="none" xmlns="http://www.w3.org/2000/svg">
<path d="M79.7727 41.9494C79.0445 41.9494 78.3874 41.7974 77.8015 41.4936C77.2156 41.1898 76.7553 40.7678 76.4205 40.2276C76.094 39.6875 75.9308 39.0756 75.9308 38.392C75.9308 37.7168 76.094 37.1091 76.4205 36.5689C76.7553 36.0288 77.2114 35.611 77.789 35.3156C78.3749 35.0118 79.0361 34.8599 79.7727 34.8599C80.5092 34.8599 81.1704 35.0118 81.7563 35.3156C82.3422 35.611 82.7984 36.0288 83.1248 36.5689C83.4513 37.1007 83.6145 37.7083 83.6145 38.392C83.6145 39.0756 83.4513 39.6875 83.1248 40.2276C82.7984 40.7678 82.3422 41.1898 81.7563 41.4936C81.1704 41.7974 80.5092 41.9494 79.7727 41.9494ZM79.7727 40.0377C80.1912 40.0377 80.5343 39.8942 80.8022 39.6073C81.07 39.3119 81.2039 38.9068 81.2039 38.392C81.2039 37.8856 81.07 37.4889 80.8022 37.2019C80.5343 36.915 80.1912 36.7715 79.7727 36.7715C79.3542 36.7715 79.011 36.915 78.7431 37.2019C78.4753 37.4889 78.3414 37.8856 78.3414 38.392C78.3414 38.9068 78.4753 39.3119 78.7431 39.6073C79.011 39.8942 79.3542 40.0377 79.7727 40.0377Z" fill="#05AD5C"/>
<path d="M84.7332 34.9738H87.1061V37.5184H89.5544V34.9738H91.9398V41.8354H89.5544V39.4301H87.1061V41.8354H84.7332V34.9738Z" fill="#05AD5C"/>
<path d="M100.479 34.9738V41.8354H98.0936V36.8854H96.3736L96.3233 37.9362C96.2899 38.8308 96.202 39.5693 96.0597 40.1517C95.9174 40.734 95.683 41.1898 95.3566 41.5189C95.0302 41.8396 94.5824 42 94.0132 42C93.7203 42 93.3353 41.9451 92.8582 41.8354L92.9586 39.8731C93.1093 39.89 93.2097 39.8985 93.2599 39.8985C93.5194 39.8985 93.7161 39.8141 93.85 39.6453C93.9839 39.4765 94.076 39.2528 94.1262 38.9743C94.1764 38.6873 94.2099 38.3076 94.2267 37.8349L94.3271 34.9738H100.479Z" fill="#05AD5C"/>
<path d="M104.857 34.8599C105.987 34.8599 106.849 35.1215 107.443 35.6448C108.037 36.1596 108.335 36.953 108.335 38.0248V41.8354H106.112V40.9492C105.769 41.616 105.1 41.9494 104.103 41.9494C103.576 41.9494 103.12 41.8565 102.735 41.6708C102.35 41.4852 102.057 41.2362 101.856 40.9239C101.664 40.6032 101.567 40.2403 101.567 39.8352C101.567 39.1853 101.814 38.6831 102.308 38.3287C102.802 37.9657 103.564 37.7843 104.593 37.7843H105.949C105.907 37.0585 105.426 36.6955 104.505 36.6955C104.179 36.6955 103.848 36.7504 103.513 36.8601C103.179 36.9614 102.894 37.1049 102.66 37.2906L101.856 35.6574C102.233 35.4042 102.689 35.2101 103.225 35.0751C103.769 34.9316 104.313 34.8599 104.857 34.8599ZM104.769 40.4302C105.045 40.4302 105.288 40.3627 105.497 40.2276C105.706 40.0926 105.857 39.8942 105.949 39.6326V39.0376H104.92C104.225 39.0376 103.878 39.2697 103.878 39.7339C103.878 39.9449 103.957 40.1137 104.116 40.2403C104.275 40.3669 104.493 40.4302 104.769 40.4302Z" fill="#05AD5C"/>
<path d="M109.77 34.9738H112.142V38.5692L114.992 34.9738H117.19V41.8354H114.804V38.2274L111.979 41.8354H109.77V34.9738ZM113.323 34.3155C112.519 34.3155 111.925 34.1467 111.54 33.8091C111.163 33.4631 110.971 32.9356 110.962 32.2266H112.507C112.515 32.522 112.582 32.7457 112.707 32.8976C112.833 33.0411 113.034 33.1128 113.31 33.1128C113.586 33.1128 113.791 33.0368 113.925 32.8849C114.068 32.733 114.139 32.5136 114.139 32.2266H115.708C115.708 32.9356 115.511 33.4631 115.118 33.8091C114.733 34.1467 114.135 34.3155 113.323 34.3155Z" fill="#05AD5C"/>
<path d="M118.793 34.9738H121.166V37.5184H123.615V34.9738H126V41.8354H123.615V39.4301H121.166V41.8354H118.793V34.9738Z" fill="#05AD5C"/>
<path d="M0.123185 27.2106C0.00824081 26.8861 -0.0262424 26.5616 0.0197352 26.2371C0.0887017 25.8893 0.192151 25.5416 0.330084 25.1939C0.468017 24.8462 0.617445 24.5101 0.778367 24.1856C0.962277 23.861 1.1117 23.5481 1.22665 23.2467C1.34159 23.0149 1.5255 22.6093 1.77838 22.0297C2.05425 21.427 2.33011 20.8012 2.60598 20.1521C2.90483 19.4798 3.1807 18.8424 3.43358 18.2397C3.68645 17.637 3.87036 17.2197 3.98531 16.9879C4.12324 16.7097 4.10025 16.4663 3.91634 16.2577C3.75542 16.0259 3.57151 15.8057 3.36461 15.5971C3.1807 15.3884 3.03127 15.1798 2.91633 14.9712C2.82437 14.7626 2.91633 14.5192 3.19219 14.241C3.35312 14.0787 3.56001 13.9744 3.81289 13.928C4.06577 13.8817 4.33014 13.8469 4.60601 13.8237C4.88187 13.7774 5.13475 13.7078 5.36464 13.6151C5.59453 13.5224 5.77844 13.3369 5.91637 13.0588L9.84746 5.54818C9.68654 4.9223 9.62906 4.40073 9.67504 3.98348C9.74401 3.56622 9.88194 3.20692 10.0888 2.90557C10.3187 2.60422 10.6061 2.32605 10.9509 2.07106C11.3187 1.81607 11.7325 1.52631 12.1923 1.20178C14.5602 0.830887 16.882 0.517946 19.1579 0.262957C21.4568 0.0079684 23.8132 -0.061574 26.227 0.05433C26.3649 0.0775108 26.5373 0.181824 26.7442 0.367271C26.9511 0.529537 27.1236 0.726574 27.2615 0.958382C27.3994 1.16701 27.4569 1.37564 27.4339 1.58426C27.4339 1.79289 27.2845 1.93198 26.9856 2.00152C26.9626 2.00152 26.8937 1.98993 26.7787 1.96675C26.6638 1.92039 26.5373 1.87402 26.3994 1.82766C26.2615 1.7813 26.135 1.73494 26.0201 1.68858C25.9052 1.64222 25.8362 1.61903 25.8132 1.61903C23.9741 1.61903 22.3764 1.64222 21.02 1.68858C19.6637 1.73494 18.4798 1.83925 17.4683 2.00152C16.4797 2.1406 15.6177 2.36082 14.882 2.66217C14.1694 2.96352 13.5257 3.38078 12.951 3.91393C12.3992 4.42391 11.8705 5.07298 11.3647 5.86112C10.882 6.64927 10.3762 7.61127 9.84746 8.74713C9.59458 9.23393 9.36469 9.69755 9.15779 10.138C8.97388 10.5321 8.82446 10.9261 8.70951 11.3202C8.59457 11.6911 8.58307 12.004 8.67503 12.259C9.9624 12.4908 11.2613 12.4677 12.5716 12.1895C13.905 11.9113 15.2383 11.5752 16.5717 11.1811C17.905 10.787 19.2384 10.4393 20.5717 10.138C21.9281 9.81345 23.2844 9.73232 24.6408 9.89458V10.6943C24.6408 10.7407 24.2155 10.845 23.3649 11.0073C22.5143 11.1463 21.4223 11.355 20.089 11.6331C18.7786 11.8881 17.3303 12.2127 15.7441 12.6067C14.1809 12.9776 12.6751 13.4181 11.2268 13.928C9.77849 14.438 8.50261 15.0175 7.39915 15.6666C6.29568 16.3157 5.54855 17.0227 5.15774 17.7876C4.4221 19.2944 3.72094 20.8475 3.05426 22.447C2.38758 24.0233 1.77838 25.6112 1.22665 27.2106C1.08872 27.4193 0.893311 27.5468 0.640434 27.5931C0.410545 27.6395 0.238129 27.512 0.123185 27.2106Z" fill="#05AD5C"/>
<path d="M25.5373 27.2106C26.4799 24.1508 27.3305 21.7284 28.0891 19.9435C28.8707 18.1354 29.5144 16.872 30.0202 16.1534C30.5489 15.4348 30.9052 15.203 31.0891 15.458C31.273 15.713 31.2501 16.362 31.0202 17.4052C30.8133 18.4483 30.3535 19.8507 29.6408 21.6125C28.9512 23.351 27.9741 25.3446 26.7098 27.5931C26.5259 27.6627 26.3075 27.6743 26.0546 27.6279C25.8017 27.5815 25.6293 27.4425 25.5373 27.2106ZM31.5719 10.4857C31.5259 10.3698 31.5029 10.1612 31.5029 9.85981C31.5029 9.55846 31.5259 9.37302 31.5719 9.30347C32.1006 9.11803 32.5029 9.09485 32.7788 9.23393C33.0547 9.37302 33.2271 9.58164 33.2961 9.85981C33.365 10.1148 33.3535 10.393 33.2616 10.6943C33.1926 10.9957 33.0662 11.2275 32.8823 11.3897C32.6984 11.5288 32.48 11.552 32.2271 11.4593C31.9972 11.3434 31.7788 11.0189 31.5719 10.4857Z" fill="#05AD5C"/>
<path d="M37.0547 27.2106C37.0317 27.1643 37.0203 27.0368 37.0203 26.8282C37.0203 26.6195 37.0317 26.4805 37.0547 26.4109C37.1237 26.1559 37.2501 25.7155 37.4341 25.0896C37.618 24.4405 37.8134 23.7683 38.0203 23.0729C38.2272 22.3543 38.4226 21.682 38.6065 21.0561C38.7904 20.4303 38.9168 19.9898 38.9858 19.7348C39.0778 19.4103 39.1812 19.0394 39.2961 18.6222C39.4111 18.1817 39.4341 17.7645 39.3651 17.3704C39.0203 17.324 38.595 17.3704 38.0892 17.5095C37.5835 17.6254 37.0777 17.7297 36.572 17.8224C36.0892 17.892 35.6294 17.892 35.1926 17.8224C34.7788 17.7297 34.48 17.4515 34.2961 16.9879C34.5719 16.4084 34.9857 16.0375 35.5375 15.8752C36.0892 15.6898 36.6869 15.5623 37.3306 15.4927C37.9743 15.4232 38.5835 15.3189 39.1582 15.1798C39.7559 15.0407 40.2272 14.7278 40.572 14.241C40.7789 13.6383 41.0203 12.9081 41.2962 12.0504C41.595 11.1695 41.9054 10.2539 42.2272 9.30347C42.5491 8.35306 42.8939 7.41424 43.2617 6.487C43.6525 5.55977 44.0548 4.73685 44.4686 4.01825C44.7215 3.85598 44.9284 3.84439 45.0893 3.98348C45.2503 4.12256 45.3652 4.33119 45.4342 4.60936C45.5261 4.86435 45.5836 5.13093 45.6066 5.4091C45.6296 5.68727 45.6296 5.87271 45.6066 5.96544C45.4686 6.56814 45.2273 7.2172 44.8824 7.91262C44.5606 8.58487 44.2502 9.2687 43.9514 9.96413C43.6755 10.6596 43.4456 11.355 43.2617 12.0504C43.1008 12.7458 43.1008 13.4065 43.2617 14.0324H50.6756C50.6986 14.0324 50.7561 14.1135 50.848 14.2758C50.94 14.4148 51.0204 14.5307 51.0894 14.6235C51.2044 14.948 51.0779 15.1682 50.7101 15.2841C50.3423 15.4 49.848 15.4812 49.2273 15.5275C48.6066 15.5507 47.894 15.5739 47.0894 15.5971C46.3077 15.5971 45.5491 15.655 44.8135 15.7709C44.1008 15.8636 43.4571 16.0375 42.8824 16.2925C42.3077 16.5243 41.9169 16.8836 41.71 17.3704C41.1123 18.9235 40.5605 20.4882 40.0548 22.0645C39.549 23.6176 39.0663 25.1939 38.6065 26.7934C38.5605 26.8629 38.4686 26.9788 38.3306 27.1411C38.1927 27.2802 38.0433 27.4077 37.8823 27.5236C37.7214 27.6163 37.5605 27.6511 37.3996 27.6279C37.2616 27.6047 37.1467 27.4656 37.0547 27.2106Z" fill="#05AD5C"/>
<path d="M62.193 27.2106C62.1241 26.4457 62.1815 25.6923 62.3654 24.9505C62.5723 24.1856 62.8367 23.4438 63.1585 22.7252C63.5034 21.9834 63.8597 21.2532 64.2275 20.5346C64.6183 19.7928 64.9517 19.0742 65.2275 18.3788C65.5034 17.6602 65.6988 16.9647 65.8138 16.2925C65.9287 15.5971 65.8827 14.9132 65.6758 14.241C65.1011 14.0324 64.4344 14.0787 63.6758 14.3801C62.9402 14.6814 62.1585 15.145 61.3309 15.7709C60.5033 16.3736 59.6413 17.0922 58.7447 17.9267C57.8711 18.7381 57.009 19.5726 56.1585 20.4303C55.3309 21.2648 54.5377 22.0645 53.7791 22.8295C53.0205 23.5944 52.3308 24.2319 51.7101 24.7419C51.1124 25.2287 50.6067 25.5416 50.1929 25.6807C49.7791 25.7966 49.5032 25.6459 49.3653 25.2287C49.3423 25.2055 49.4687 24.9157 49.7446 24.3594C50.0434 23.7799 50.3997 23.0613 50.8135 22.2036C51.2503 21.3459 51.7216 20.4187 52.2274 19.4219C52.7561 18.4251 53.2504 17.4979 53.7101 16.6402C54.1699 15.7593 54.5722 15.0175 54.9171 14.4148C55.2619 13.8121 55.4803 13.4876 55.5722 13.4412C56.055 13.7658 56.2964 14.1251 56.2964 14.5192C56.3194 14.89 56.2619 15.2841 56.124 15.7014C55.986 16.0955 55.8251 16.5011 55.6412 16.9184C55.4803 17.3356 55.4573 17.7529 55.5722 18.1701C55.9401 17.9151 56.4458 17.5674 57.0895 17.127C57.7562 16.6634 58.4688 16.1882 59.2275 15.7014C60.0091 15.2146 60.8137 14.7394 61.6413 14.2758C62.4919 13.8121 63.285 13.4528 64.0206 13.1978C64.7563 12.9197 65.4115 12.769 65.9862 12.7458C66.5839 12.7226 67.0207 12.8965 67.2965 13.2674C67.5724 13.6383 67.6529 14.2526 67.5379 15.1103C67.446 15.9448 67.0896 17.0922 66.4689 18.5526C66.4 18.7149 66.2276 19.109 65.9517 19.7348C65.6988 20.3375 65.4115 20.9982 65.0896 21.7168C64.7908 22.4122 64.5034 23.0729 64.2275 23.6988C63.9747 24.3015 63.8137 24.6839 63.7448 24.8462C63.7218 24.9389 63.6873 25.1128 63.6413 25.3678C63.6183 25.5996 63.5838 25.8662 63.5379 26.1675C63.4919 26.4457 63.4229 26.7239 63.331 27.002C63.239 27.257 63.1241 27.454 62.9861 27.5931C62.8482 27.7322 62.6873 27.7206 62.5034 27.5584C62.3195 27.3729 62.216 27.257 62.193 27.2106Z" fill="#05AD5C"/>
<path d="M71.538 27.2106C70.8483 26.9788 70.3196 26.6311 69.9517 26.1675C69.6069 25.6807 69.377 25.1476 69.2621 24.568C69.1471 23.9885 69.1241 23.3858 69.1931 22.7599C69.2851 22.1109 69.423 21.4966 69.6069 20.9171C70.2966 20.1753 71.0667 19.3292 71.9173 18.3788C72.7909 17.4052 73.7104 16.4548 74.6759 15.5275C75.6415 14.6003 76.6415 13.7426 77.676 12.9545C78.7335 12.1431 79.8025 11.5288 80.8829 11.1116C81.2508 10.9493 81.5381 10.9609 81.745 11.1463C81.9749 11.3086 82.1358 11.5752 82.2278 11.9461C82.3197 12.317 82.3542 12.7458 82.3312 13.2326C82.3312 13.7194 82.2967 14.1946 82.2278 14.6582C82.1588 15.1219 82.0669 15.5391 81.9519 15.91C81.837 16.2809 81.722 16.5359 81.6071 16.675C81.3312 16.9995 80.791 17.382 79.9864 17.8224C79.2048 18.2629 78.3312 18.7497 77.3656 19.2828C76.4001 19.7928 75.4346 20.3259 74.469 20.8823C73.5035 21.4386 72.7104 21.995 72.0897 22.5513C71.469 23.0845 71.1012 23.6176 70.9862 24.1508C70.8713 24.6839 71.1931 25.1707 71.9518 25.6112C72.7334 25.7039 73.6759 25.6691 74.7794 25.5069C75.9059 25.3214 77.0438 25.0896 78.1932 24.8114C79.3657 24.5101 80.4921 24.2087 81.5726 23.9074C82.6531 23.5829 83.5381 23.3279 84.2278 23.1424L84.6416 23.5249C84.1358 24.1971 83.3083 24.8114 82.1588 25.3678C81.0094 25.9241 79.768 26.3877 78.4346 26.7586C77.1013 27.1063 75.8024 27.3381 74.538 27.454C73.2736 27.5468 72.2736 27.4656 71.538 27.2106ZM79.7795 13.928C79.7565 13.9049 79.5841 14.0092 79.2622 14.241C78.9404 14.4496 78.5381 14.7394 78.0553 15.1103C77.5955 15.458 77.0898 15.8521 76.538 16.2925C76.0093 16.7097 75.515 17.1038 75.0553 17.4747C74.6185 17.8456 74.2507 18.1701 73.9518 18.4483C73.6529 18.7033 73.5265 18.8308 73.5725 18.8308C73.9403 18.9003 74.4116 18.854 74.9863 18.6917C75.584 18.5063 76.1932 18.2513 76.8139 17.9267C77.4576 17.6022 78.0668 17.2429 78.6415 16.8488C79.2162 16.4316 79.6645 16.0259 79.9864 15.6318C80.3312 15.2378 80.5036 14.89 80.5036 14.5887C80.5266 14.2873 80.2852 14.0671 79.7795 13.928Z" fill="#05AD5C"/>
<path d="M84.6071 27.2106C84.3313 27.0252 84.3198 26.7818 84.5726 26.4805C84.8485 26.1559 85.2738 25.8198 85.8485 25.4721C86.4462 25.1012 87.1359 24.7187 87.9175 24.3246C88.6991 23.9306 89.4463 23.5597 90.1589 23.212C90.8946 22.8642 91.5383 22.5629 92.09 22.3079C92.6417 22.0297 92.998 21.8211 93.159 21.682C93.9176 21.033 94.3084 20.4998 94.3314 20.0826C94.3774 19.6421 94.1935 19.2944 93.7797 19.0394C93.3659 18.7612 92.7797 18.5526 92.021 18.4135C91.2854 18.2513 90.5153 18.1122 89.7106 17.9963C88.929 17.8572 88.1704 17.7181 87.4347 17.579C86.7221 17.4399 86.1819 17.2545 85.814 17.0227C85.4462 16.7909 85.3198 16.4895 85.4347 16.1186C85.5727 15.7246 86.0784 15.2262 86.952 14.6235C87.2738 14.3917 87.7451 14.0555 88.3658 13.6151C88.9865 13.1747 89.6532 12.7226 90.3658 12.259C91.1015 11.7954 91.8256 11.3782 92.5383 11.0073C93.2509 10.6364 93.8486 10.393 94.3314 10.2771C94.5843 10.2307 94.8372 10.2539 95.09 10.3466C95.3659 10.4393 95.5843 10.5784 95.7452 10.7639C95.9061 10.9261 95.9751 11.1116 95.9521 11.3202C95.9521 11.5288 95.8027 11.7143 95.5038 11.8765C94.1935 12.6183 92.9291 13.3138 91.7107 13.9628C90.5153 14.6119 89.3083 15.3537 88.0899 16.1882C88.021 16.3736 88.0325 16.5359 88.1244 16.675C88.2394 16.8141 88.3658 16.9184 88.5037 16.9879C90.9405 17.2429 92.7682 17.6022 93.9866 18.0658C95.228 18.5294 96.0096 19.0394 96.3314 19.5958C96.6763 20.1521 96.6418 20.7432 96.228 21.3691C95.8142 21.995 95.1935 22.6093 94.3659 23.212C93.5613 23.8147 92.6302 24.3826 91.5727 24.9157C90.5153 25.4489 89.4922 25.9009 88.5037 26.2718C87.5382 26.6427 86.6876 26.9209 85.952 27.1063C85.2163 27.2918 84.768 27.3266 84.6071 27.2106Z" fill="#05AD5C"/>
<path d="M98.2625 27.2106C97.9866 27.0252 97.9751 26.7818 98.228 26.4805C98.5039 26.1559 98.9292 25.8198 99.5039 25.4721C100.102 25.1012 100.791 24.7187 101.573 24.3246C102.355 23.9306 103.102 23.5597 103.814 23.212C104.55 22.8642 105.194 22.5629 105.745 22.3079C106.297 22.0297 106.653 21.8211 106.814 21.682C107.573 21.033 107.964 20.4998 107.987 20.0826C108.033 19.6421 107.849 19.2944 107.435 19.0394C107.021 18.7612 106.435 18.5526 105.676 18.4135C104.941 18.2513 104.171 18.1122 103.366 17.9963C102.584 17.8572 101.826 17.7181 101.09 17.579C100.377 17.4399 99.8372 17.2545 99.4694 17.0227C99.1016 16.7909 98.9751 16.4895 99.0901 16.1186C99.228 15.7246 99.7338 15.2262 100.607 14.6235C100.929 14.3917 101.4 14.0555 102.021 13.6151C102.642 13.1747 103.309 12.7226 104.021 12.259C104.757 11.7954 105.481 11.3782 106.194 11.0073C106.906 10.6364 107.504 10.393 107.987 10.2771C108.24 10.2307 108.493 10.2539 108.745 10.3466C109.021 10.4393 109.24 10.5784 109.401 10.7639C109.562 10.9261 109.63 11.1116 109.607 11.3202C109.607 11.5288 109.458 11.7143 109.159 11.8765C107.849 12.6183 106.584 13.3138 105.366 13.9628C104.171 14.6119 102.964 15.3537 101.745 16.1882C101.676 16.3736 101.688 16.5359 101.78 16.675C101.895 16.8141 102.021 16.9184 102.159 16.9879C104.596 17.2429 106.424 17.6022 107.642 18.0658C108.883 18.5294 109.665 19.0394 109.987 19.5958C110.332 20.1521 110.297 20.7432 109.883 21.3691C109.47 21.995 108.849 22.6093 108.021 23.212C107.217 23.8147 106.286 24.3826 105.228 24.9157C104.171 25.4489 103.148 25.9009 102.159 26.2718C101.194 26.6427 100.343 26.9209 99.6073 27.1063C98.8717 27.2918 98.4234 27.3266 98.2625 27.2106Z" fill="#05AD5C"/>
</svg>
