<svg width="36" height="36" viewBox="0 0 36 36" fill="none" xmlns="http://www.w3.org/2000/svg">
<path d="M19.5654 24.1976C19.6321 24.1976 19.6995 24.1787 19.7594 24.1393C22.9359 22.0464 25.0794 18.699 25.6403 14.9554C25.6692 14.7625 25.5363 14.5826 25.3434 14.5537C25.151 14.5249 24.9707 14.6578 24.9418 14.8507C24.4106 18.3962 22.38 21.5667 19.3708 23.5495C19.208 23.6568 19.1629 23.8758 19.2702 24.0387C19.3381 24.1417 19.4506 24.1976 19.5654 24.1976Z" fill="#E9E9E9"/>
<path d="M13.7736 26.268C13.7859 26.268 13.7982 26.2673 13.8107 26.266C14.8246 26.1603 15.8255 25.9381 16.7854 25.6059C16.9697 25.5421 17.0674 25.3409 17.0036 25.1567C16.9399 24.9724 16.7388 24.8747 16.5544 24.9384C15.6455 25.253 14.6977 25.4633 13.7375 25.5635C13.5435 25.5838 13.4026 25.7574 13.4228 25.9514C13.4418 26.1329 13.595 26.268 13.7736 26.268Z" fill="#05AD5C"/>
<path d="M11.86 12.9784C11.908 13.0005 11.9583 13.011 12.0079 13.011C12.1413 13.011 12.2691 12.9348 12.3287 12.8056C12.4104 12.6284 12.3331 12.4185 12.156 12.3367C11.5069 12.037 10.8799 11.6929 10.2925 11.3142C10.1285 11.2085 9.91001 11.2558 9.80435 11.4198C9.69876 11.5839 9.74601 11.8026 9.90994 11.9083C10.525 12.3048 11.1811 12.6648 11.86 12.9784Z" fill="#05AD5C"/>
<path d="M17.0613 12.9227C17.0613 13.1915 17.0805 13.4596 17.1186 13.724C16.6259 13.6735 15.7686 13.5521 14.7126 13.2649C14.5244 13.2134 14.3303 13.3247 14.2791 13.5129C14.2279 13.7011 14.3389 13.8952 14.5272 13.9464C16.191 14.399 17.4034 14.4591 17.5362 14.4644C17.6454 14.4684 17.7523 14.4216 17.8226 14.3367C17.8928 14.2517 17.9194 14.1388 17.8944 14.0314C17.8103 13.6706 17.7677 13.2976 17.7677 12.9227C17.7677 10.2246 19.9641 8.02954 22.6638 8.02954C24.0326 8.02954 25.3018 8.57968 26.2376 9.57874C26.3278 9.67487 26.4639 9.71294 26.5907 9.67734C26.8428 9.60671 27.0997 9.52768 27.3764 9.43558C28.1105 9.19077 28.7396 8.93071 29.1954 8.72645C28.6526 9.72905 27.5293 10.5235 27.35 10.6462C27.2035 10.714 27.1315 10.8695 27.1631 11.0299C27.1957 11.1954 27.352 11.3097 27.5208 11.3097C27.5316 11.3097 27.543 11.3092 27.5548 11.3081C27.5583 11.3078 27.5617 11.3076 27.5652 11.3072C28.273 11.2365 28.9808 11.0618 29.5384 10.894C28.9688 11.5103 28.1886 12.1774 27.6814 12.5766C27.5924 12.6466 27.5424 12.7551 27.5469 12.8683C27.5549 13.0667 27.5589 13.2689 27.5589 13.4693C27.5589 21.5227 21.0069 28.0747 12.9533 28.0747C10.6951 28.0747 8.48696 27.5573 6.48636 26.5681C10.2571 26.5142 12.7801 24.2791 12.8992 24.1715C13.004 24.0768 13.0423 23.929 12.9968 23.7955C12.9512 23.6618 12.8306 23.5682 12.6899 23.5573C9.86411 23.3376 8.7454 21.5566 8.35905 20.6639C9.52303 20.756 10.2438 20.4901 10.2784 20.477C10.4237 20.422 10.516 20.2785 10.5058 20.1235C10.4955 19.9684 10.3851 19.8383 10.2339 19.8029C6.97364 19.0399 6.43297 16.6103 6.35881 15.5122C7.30857 15.9224 8.2132 15.9634 8.25812 15.9652C8.4068 15.9709 8.54452 15.8823 8.60004 15.7435C8.65555 15.6046 8.6177 15.4458 8.5054 15.3471C5.52777 12.7281 6.3456 10.2184 6.82835 9.2691C7.13948 9.62063 7.46847 9.95838 7.81039 10.2772C7.95307 10.4103 8.17654 10.4024 8.30947 10.2598C8.44246 10.1171 8.43469 9.89361 8.29202 9.76062C7.85122 9.34969 7.43316 8.90557 7.04921 8.44068C6.97986 8.3567 6.87462 8.30896 6.76669 8.31256C6.65778 8.31567 6.55643 8.36892 6.49201 8.45686C6.46404 8.495 5.80612 9.40697 5.67157 10.7839C5.56535 11.8713 5.77964 13.4356 7.22706 15.0717C6.89835 14.9785 6.53171 14.8397 6.18633 14.6333C6.08222 14.5711 5.95346 14.5666 5.84532 14.6215C5.73719 14.6765 5.66479 14.783 5.65356 14.9038C5.64933 14.9496 5.55496 16.0403 6.05142 17.2754C6.40761 18.1614 7.1298 19.2524 8.59163 19.9706C8.37918 19.9608 8.14681 19.9376 7.89699 19.8953C7.78017 19.8756 7.6613 19.9157 7.58035 20.0021C7.49941 20.0886 7.4672 20.2098 7.49454 20.3251C7.50337 20.3625 7.72041 21.2512 8.46408 22.1798C9.0537 22.9161 10.0845 23.8009 11.7691 24.1419C10.641 24.9043 8.15055 26.232 5.00709 25.7627C4.82055 25.735 4.64617 25.8584 4.60937 26.0432C4.57956 26.1929 4.64963 26.3403 4.7745 26.4151C7.2183 27.9629 10.0463 28.781 12.9535 28.781C21.3964 28.781 28.2653 21.9122 28.2652 13.4693C28.2652 13.3197 28.263 13.1692 28.2588 13.0197C28.8207 12.5673 30.38 11.2593 30.8189 10.3372C30.8816 10.2052 30.8566 10.0482 30.7559 9.94221C30.6552 9.83626 30.4996 9.80335 30.3646 9.85929C30.3546 9.86338 29.6718 10.1442 28.7948 10.3664C29.3798 9.79452 30.011 8.99301 30.1606 8.09643C30.1828 7.96379 30.1275 7.83008 30.0183 7.75161C29.9091 7.67307 29.7647 7.66354 29.646 7.72675C29.6357 7.73233 28.5903 8.28621 27.1531 8.76551C26.9605 8.8295 26.7782 8.88699 26.6006 8.93947C25.5568 7.90975 24.1343 7.32324 22.6638 7.32324C19.5745 7.32324 17.0613 9.8352 17.0613 12.9227Z" fill="#E9E9E9"/>
</svg>
