<svg width="36" height="36" viewBox="0 0 36 36" fill="none" xmlns="http://www.w3.org/2000/svg">
<path d="M3.96665 14.1262C5.56162 17.3202 6.97521 19.6411 8.55019 21.6515C9.84046 23.2989 11.219 24.502 12.7644 25.3298C14.5588 26.291 16.5829 26.674 19.1344 26.5357C20.0435 26.4858 20.6227 25.9403 20.6839 25.0777C20.6953 24.9308 20.8869 23.504 21.0882 22.9963C21.1428 22.8586 21.2407 22.6855 21.3964 22.6423C21.5359 22.6036 21.7234 22.6666 21.9246 22.8201C22.1248 22.9722 22.3294 23.1584 22.5501 23.3893C22.794 23.6446 23.0384 23.9102 23.2748 24.1671C23.7043 24.6339 24.1485 25.1167 24.6165 25.5671C25.3286 26.2523 26.2035 26.6021 27.2171 26.6066C27.242 26.6067 27.3338 26.6089 27.4746 26.6121C28.2955 26.6309 29.2869 26.6503 30.101 26.6503C30.7499 26.6503 31.2862 26.638 31.5336 26.6029C32.1775 26.5115 32.6526 26.2003 32.8715 25.7264C33.0954 25.2419 33.0206 24.6624 32.6611 24.0944C32.1984 23.364 31.6462 22.6458 31.0198 21.9594C30.5345 21.4285 30.0141 20.9206 29.5108 20.4294C29.164 20.0911 28.8055 19.7412 28.4646 19.3896C28.0577 18.9695 28.0351 18.7768 28.3288 18.2453C28.4395 18.0467 28.5378 17.8906 28.638 17.7539C28.7534 17.5966 28.7194 17.3756 28.5621 17.2603C28.405 17.1449 28.184 17.1788 28.0685 17.3362C27.9505 17.497 27.8372 17.6766 27.7113 17.9025C27.2689 18.7028 27.3355 19.239 27.9574 19.8811C28.3052 20.2399 28.6673 20.5932 29.0175 20.9349C29.5137 21.4192 30.0268 21.9199 30.4983 22.4357C31.0967 23.0916 31.6237 23.7768 32.0644 24.4723C32.2913 24.8306 32.3502 25.1708 32.2304 25.4303C32.1156 25.679 31.8328 25.8471 31.4348 25.9036C31.0597 25.9565 29.7328 25.9572 27.4907 25.9058C27.3426 25.9024 27.2461 25.9002 27.22 25.9002C26.3942 25.8965 25.683 25.6131 25.1062 25.0581C24.6536 24.6225 24.2168 24.1478 23.7945 23.6887C23.5559 23.4294 23.3092 23.1614 23.0607 22.9012C22.8139 22.6431 22.5821 22.4325 22.3523 22.2579C21.9717 21.9678 21.5651 21.8625 21.2075 21.9616C20.9675 22.0281 20.638 22.2164 20.4315 22.7356C20.1803 23.3699 19.9865 24.9291 19.9793 25.0265C19.9436 25.5297 19.6463 25.8001 19.0958 25.8303C16.6794 25.9616 14.7733 25.6046 13.0978 24.7071C11.6404 23.9264 10.3347 22.7845 9.10605 21.2158C7.56158 19.2443 6.17137 16.9604 4.59844 13.8104C4.5206 13.6547 3.2951 11.0427 3.19629 10.786C3.14183 10.5708 3.1477 10.2998 3.33444 10.2094C3.78591 10.1484 7.58122 10.217 7.87349 10.228C8.46671 10.26 8.80135 10.5014 9.02836 11.0611C9.94358 13.3209 11.0327 15.226 12.3577 16.8848C12.5529 17.1304 12.8083 17.3644 13.0959 17.5616C13.3692 17.7489 13.6614 17.8061 13.9189 17.7223C14.1686 17.6412 14.3639 17.4339 14.4684 17.1396C14.6406 16.659 14.7839 15.7435 14.7924 15.2771C14.8156 14.0896 14.7893 13.3144 14.7253 12.1247C14.6653 11.0197 14.1129 10.3851 13.037 10.1851C13.0469 10.1674 13.0605 10.1461 13.0793 10.122C13.4217 9.68447 13.8804 9.5805 14.6075 9.54173C15.4265 9.49744 16.2676 9.51319 17.0811 9.52845C17.3719 9.53389 17.6627 9.53933 17.9536 9.54222C18.4409 9.5466 18.8644 9.58947 19.2488 9.67338C19.658 9.76245 19.8952 10.0327 19.9739 10.5002C20.0226 10.7874 20.0442 11.0673 20.0379 11.3324C20.026 11.8588 20.0082 12.3948 19.9911 12.9133C19.9664 13.6595 19.9409 14.4312 19.932 15.192C19.9252 15.7741 19.9745 16.31 20.0789 16.7851C20.2218 17.432 20.576 17.6226 20.7746 17.6785C20.9646 17.7321 21.3471 17.7564 21.772 17.3158C22.3062 16.7612 22.8227 16.1146 23.447 15.2194C24.2607 14.0524 24.9641 12.6896 25.6606 10.9309C25.9119 10.2978 26.0175 10.2251 26.6877 10.2237C28.4742 10.2194 29.9432 10.2194 31.3108 10.2237C31.5977 10.2249 31.8307 10.2552 32.0223 10.316C32.1796 10.3662 32.35 10.4677 32.2724 10.8103C32.2293 11.0005 32.3485 11.1897 32.5387 11.2328C32.7289 11.2758 32.9181 11.1567 32.9612 10.9665C33.1014 10.3478 32.8172 9.82842 32.2366 9.64301C31.9752 9.56002 31.6733 9.51892 31.3134 9.51743C29.9441 9.51305 28.4737 9.51305 26.6861 9.51743C25.7241 9.51955 25.3626 9.76739 25.004 10.6706C24.328 12.3775 23.6491 13.6946 22.8676 14.8155C22.2655 15.6791 21.7707 16.2991 21.2634 16.8257C21.1097 16.9851 21.0043 17.0093 20.9663 16.9988C20.9232 16.9866 20.8263 16.8945 20.7686 16.6332C20.6759 16.211 20.6321 15.7289 20.6383 15.2003C20.647 14.4472 20.6724 13.6793 20.697 12.9367C20.7143 12.4165 20.7321 11.8786 20.7441 11.3489C20.7513 11.039 20.7265 10.7138 20.6703 10.3827C20.5438 9.63115 20.0923 9.13419 19.3992 8.98347C18.9671 8.88911 18.4963 8.84094 17.9603 8.83613C17.6718 8.83324 17.3831 8.82787 17.0943 8.82243C16.2682 8.80703 15.4139 8.791 14.5696 8.83663C13.8722 8.87385 13.0814 8.9733 12.523 9.68702C12.322 9.94411 12.2587 10.2278 12.3492 10.4653C12.3971 10.591 12.5315 10.8117 12.8927 10.8768C13.779 11.0364 13.9844 11.5065 14.0201 12.163C14.0831 13.335 14.1091 14.0979 14.0863 15.264C14.079 15.6662 13.947 16.5008 13.8032 16.9025C13.7692 16.9984 13.7279 17.042 13.7005 17.0509C13.6689 17.0612 13.5963 17.0486 13.4954 16.9794C13.2649 16.8214 13.0627 16.6367 12.91 16.4448C11.6278 14.8395 10.5723 12.9918 9.68303 10.796C9.35439 9.98592 8.77501 9.56949 7.91071 9.52287C7.86861 9.52068 3.45734 9.40273 3.09833 9.54272C2.57644 9.74571 2.34272 10.3228 2.51704 10.98C2.56789 11.1694 3.95359 14.1001 3.96665 14.1262Z" fill="#E9E9E9"/>
<path d="M30.9046 13.2252C30.6593 13.6012 30.3887 14.0081 30.0773 14.4692C29.9697 14.6283 30.0115 14.8445 30.1707 14.952C30.2343 14.995 30.3071 15.0141 30.3784 15.0114C30.4854 15.0073 30.589 14.954 30.6535 14.8585C30.9672 14.3944 31.2398 13.9843 31.4872 13.6052C31.5921 13.4443 31.5467 13.2288 31.3859 13.1239C31.2251 13.019 31.0096 13.0643 30.9046 13.2252Z" fill="#05AD5C"/>
</svg>
